<?xml version="1.0" standalone="no"?>
<!DOCTYPE svg PUBLIC "-//W3C//DTD SVG 20010904//EN"
 "http://www.w3.org/TR/2001/REC-SVG-20010904/DTD/svg10.dtd">
<svg version="1.0" xmlns="http://www.w3.org/2000/svg"
 width="300.000000pt" height="300.000000pt" viewBox="0 0 300.000000 300.000000"
 preserveAspectRatio="xMidYMid meet">
<metadata>
Created by potrace 1.10, written by Peter Selinger 2001-2011
</metadata>
<g transform="translate(0.000000,300.000000) scale(0.100000,-0.100000)"
fill="#000000" stroke="none">
<path d="M1180 2946 c0 -34 5 -56 13 -59 9 -4 9 -7 -1 -15 -7 -5 -10 -16 -6
-27 5 -13 4 -16 -4 -11 -7 4 -12 1 -12 -7 0 -8 -20 -34 -44 -58 -58 -59 -96
-164 -92 -261 1 -37 -2 -68 -7 -68 -5 0 -5 9 -2 20 5 16 2 20 -19 20 -23 0
-26 -4 -26 -37 0 -21 3 -68 6 -104 l7 -66 23 24 c13 13 24 29 24 36 0 7 -4 6
-10 -3 -7 -12 -12 -12 -21 -3 -9 9 -9 16 1 28 8 10 9 15 1 15 -6 0 -11 11 -11
25 0 16 6 25 15 25 10 0 15 -10 15 -29 0 -17 4 -32 8 -35 5 -3 13 57 19 132 9
112 16 147 38 194 25 56 93 138 113 138 5 0 15 7 22 15 19 22 80 49 107 47 13
-1 22 2 19 7 -15 24 175 29 230 6 18 -7 35 -11 37 -8 7 7 47 -16 71 -41 12
-12 44 -39 71 -61 28 -22 62 -51 76 -65 15 -14 34 -31 42 -38 36 -28 54 -201
27 -252 -7 -13 -8 -25 -3 -29 5 -3 3 -26 -3 -51 -8 -31 -12 -39 -16 -25 -2 11
-8 -18 -12 -64 -9 -104 -28 -194 -51 -246 -9 -22 -21 -55 -25 -73 -8 -33 -8
-33 11 -16 13 12 16 20 8 24 -7 5 -2 17 15 34 13 15 26 39 28 54 5 40 28 40
27 0 0 -25 -2 -29 -8 -14 -5 12 -7 -2 -7 -37 1 -30 4 -59 9 -63 4 -4 6 -46 6
-93 -1 -47 -3 -79 -6 -70 -4 16 -42 33 -51 24 -3 -2 -1 -12 3 -22 5 -12 9 -14
12 -5 7 18 21 15 19 -5 0 -12 5 -17 16 -15 9 1 19 -2 23 -8 3 -5 0 -10 -8 -10
-17 0 -30 -27 -20 -43 4 -6 10 -1 15 13 6 17 12 20 20 12 8 -8 8 -15 -1 -25
-9 -12 -8 -16 6 -22 17 -6 17 -7 1 -16 -10 -6 -18 -15 -18 -20 0 -6 5 -7 10
-4 6 3 10 1 10 -5 0 -6 -6 -10 -12 -9 -7 1 -21 -1 -31 -6 -11 -5 -24 -2 -35 7
-9 9 -22 14 -28 11 -12 -4 -12 25 1 47 4 8 4 12 0 7 -5 -4 -16 10 -25 30 l-16
37 3 -50 c1 -27 2 -59 2 -72 1 -13 5 -21 10 -17 5 3 11 -9 13 -27 l3 -33 14
25 c10 17 11 25 2 28 -6 2 -9 8 -5 13 3 5 11 3 19 -4 10 -11 11 -24 5 -53 -5
-21 -10 -58 -10 -81 0 -24 -4 -43 -9 -43 -16 0 -42 62 -36 84 5 17 4 18 -4 5
-13 -20 -10 -96 4 -96 38 0 42 -4 44 -49 0 -26 -4 -53 -11 -61 -10 -13 -3 -24
40 -64 50 -46 70 -60 57 -40 -3 5 2 16 10 24 16 16 21 31 8 24 -13 -7 -68 29
-68 43 0 8 14 18 31 23 35 10 65 47 38 47 -8 0 -13 -4 -10 -9 4 -5 -7 -12 -24
-16 -38 -8 -45 -7 -45 8 -1 6 -5 20 -10 31 -4 10 -4 21 1 25 5 3 9 20 10 37 2
54 14 86 29 80 17 -6 21 9 5 19 -13 8 -13 42 0 50 10 6 39 -53 45 -90 1 -11 6
-28 10 -38 5 -13 3 -16 -9 -11 -8 3 -18 14 -21 25 -4 11 -10 17 -15 14 -5 -3
-11 1 -13 7 -4 9 -6 10 -6 1 -1 -6 4 -15 9 -18 7 -4 7 -13 0 -26 -9 -15 -7
-19 5 -19 23 0 18 -14 -12 -32 -24 -14 -26 -18 -11 -23 24 -9 90 7 96 24 3 9
-2 11 -17 6 -16 -5 -21 -2 -21 10 0 12 6 16 19 12 15 -3 19 0 18 14 -1 11 -5
19 -9 19 -20 0 -5 28 17 32 14 3 25 1 25 -3 0 -5 12 -15 28 -23 15 -8 21 -15
14 -16 -7 0 -10 -4 -7 -10 3 -5 1 -19 -5 -30 -15 -27 4 -53 32 -44 17 5 19 2
15 -25 -7 -39 1 -40 14 -1 6 16 15 30 20 30 5 0 4 -12 -1 -26 -14 -36 -13 -41
10 -47 11 -3 30 3 43 13 23 19 21 30 -9 34 -27 4 -28 23 -2 29 12 4 24 5 25 3
2 -2 7 -28 10 -57 5 -42 8 -48 13 -29 7 28 50 42 50 16 0 -8 -4 -18 -10 -21
-6 -3 -10 -1 -10 6 0 7 -2 10 -5 7 -3 -3 -3 -18 1 -34 4 -22 12 -29 29 -30 18
-1 22 2 18 15 -4 13 -3 13 5 2 6 -8 17 -11 27 -7 17 6 17 8 0 26 -10 11 -13
20 -7 20 6 0 27 17 47 37 34 35 38 36 50 20 8 -11 19 -15 30 -10 13 4 16 3 11
-6 -4 -6 -2 -19 6 -28 19 -24 18 -75 -3 -102 -11 -13 -19 -30 -19 -37 0 -18
-19 -18 -26 0 -3 8 6 28 20 43 30 32 33 59 10 91 -15 21 -42 32 -29 12 3 -6 0
-10 -8 -10 -8 0 -23 -12 -33 -26 -33 -46 -41 -51 -85 -52 -48 -2 -68 -17 -73
-53 -6 -45 -26 -83 -38 -71 -6 6 -17 8 -24 5 -8 -3 -14 0 -14 6 0 6 7 11 15
11 16 0 33 34 42 85 4 23 2 27 -6 15 -6 -8 -11 -25 -11 -37 0 -15 -5 -20 -17
-17 -15 4 -22 -8 -37 -60 -10 -37 -22 -66 -26 -66 -14 0 -20 29 -11 53 25 65
55 117 68 117 10 0 13 9 11 33 -3 29 -6 32 -37 33 -19 0 -37 6 -39 12 -4 14
-22 6 -22 -10 0 -6 3 -9 6 -5 3 3 14 -2 24 -10 17 -15 18 -18 2 -38 l-17 -23
-24 27 c-19 20 -25 22 -29 11 -8 -24 -39 -60 -46 -53 -3 3 -1 12 5 20 9 10 8
13 0 13 -7 0 -9 4 -6 10 3 5 1 10 -4 10 -6 0 -11 -8 -11 -18 0 -10 -5 -23 -11
-29 -15 -15 -3 -33 22 -33 13 0 19 -7 19 -21 0 -33 113 -168 125 -149 12 19
25 10 26 -17 1 -26 3 -24 15 15 2 7 9 10 14 7 8 -5 7 -11 -1 -21 -9 -11 -8
-14 4 -14 8 0 20 7 27 15 7 8 10 15 6 15 -3 0 3 9 14 20 25 25 34 26 20 1 -5
-11 -10 -31 -10 -45 0 -27 -15 -35 -23 -13 -4 8 -6 8 -6 -3 -1 -8 13 -29 31
-47 l31 -32 49 34 c26 19 50 35 52 35 2 0 1 -11 -2 -25 -3 -20 -7 -23 -18 -14
-11 9 -14 8 -14 -4 0 -9 12 -25 26 -36 23 -18 25 -23 13 -38 -12 -15 -12 -16
4 -10 10 4 23 7 28 7 6 0 7 5 4 10 -3 6 1 10 9 10 9 0 16 5 16 10 0 6 -7 10
-15 10 -23 0 -18 19 9 31 26 12 76 5 76 -11 0 -6 -9 -10 -20 -10 -25 0 -25 -8
-2 -27 16 -14 16 -14 0 -9 -10 3 -18 1 -18 -4 0 -6 9 -10 20 -10 11 0 20 -5
20 -11 0 -5 5 -7 11 -4 6 4 8 13 5 21 -6 15 3 18 28 8 29 -11 4 -34 -45 -40
-27 -4 -52 -11 -55 -15 -9 -15 -34 -10 -34 7 0 10 -16 -4 -39 -32 -32 -38 -38
-51 -30 -66 5 -10 15 -18 21 -18 7 0 7 4 -1 14 -9 11 -9 16 -1 21 20 12 33
-10 21 -33 -6 -12 -7 -23 -2 -26 4 -3 15 12 23 33 16 39 15 39 -8 45 -13 4
-24 11 -24 16 0 12 17 13 24 2 7 -11 76 -6 89 7 6 6 18 11 27 11 8 1 31 14 50
30 28 25 37 28 48 17 7 -7 10 -21 6 -30 -5 -13 -10 -14 -25 -6 -22 11 -63 -6
-53 -23 4 -7 9 -7 14 1 12 21 60 -5 60 -33 0 -17 -5 -24 -17 -22 -10 2 -18 9
-18 17 0 7 -8 15 -17 17 -10 2 -18 -2 -18 -8 0 -7 -8 -9 -22 -4 -40 13 -87 11
-93 -5 -8 -21 3 -27 26 -12 18 10 23 10 35 -6 17 -22 17 -24 -1 -47 -20 -27
-19 -39 4 -31 30 9 67 -59 41 -75 -9 -6 -3 -17 21 -38 19 -17 37 -26 40 -21 3
6 16 6 32 0 28 -11 34 -25 16 -36 -6 -4 4 -17 25 -31 43 -30 87 -25 85 10 -1
16 -2 17 -6 3 -3 -10 -14 -17 -29 -17 -17 0 -23 4 -18 12 4 7 3 8 -4 4 -8 -5
-12 1 -12 14 0 12 4 18 10 15 6 -4 10 -3 9 2 -1 4 0 10 1 13 8 21 6 39 -3 37
-7 -1 -11 5 -11 14 1 11 -5 15 -17 12 -20 -5 -23 4 -13 31 3 9 10 14 14 11 4
-3 10 1 13 9 4 9 0 12 -12 9 -10 -2 -25 3 -35 12 -21 21 -21 11 0 -20 15 -23
15 -25 0 -25 -23 0 -20 -8 14 -37 29 -24 40 -53 20 -53 -6 0 -13 7 -16 15 -4
8 -17 15 -31 15 -13 0 -21 4 -18 10 3 6 2 10 -4 10 -5 0 -11 -6 -14 -12 -3 -9
-10 -8 -23 6 -14 13 -16 20 -6 23 6 3 9 9 6 15 -4 6 2 8 17 3 l24 -7 -22 17
c-13 9 -23 22 -23 30 0 8 -9 19 -20 25 -13 7 -18 18 -16 33 3 12 5 25 5 29 2
12 56 3 57 -10 3 -23 4 -24 18 -13 8 7 18 26 21 42 4 16 10 29 15 29 19 0 40
-13 34 -21 -6 -11 7 -12 21 -1 34 25 35 38 5 72 -17 19 -30 44 -30 56 0 31
-10 54 -23 54 -7 0 -7 -4 1 -12 16 -16 15 -33 -4 -52 -25 -26 -32 -19 -30 29
1 25 -2 45 -6 45 -5 0 -8 -12 -9 -27 l-1 -28 -10 28 c-5 15 -16 27 -24 27 -12
0 -12 -4 -4 -21 19 -35 5 -44 -26 -16 -16 15 -38 33 -48 41 -28 20 -14 70 18
64 17 -4 28 3 42 24 10 15 22 28 27 28 10 0 9 28 -2 35 -5 3 -13 0 -17 -6 -5
-8 -3 -9 6 -4 9 6 11 4 5 -4 -10 -18 -29 3 -22 23 9 22 39 20 81 -5 22 -13 36
-29 36 -41 0 -14 5 -18 15 -14 10 4 19 -2 24 -17 7 -17 10 -4 16 53 8 95 3
210 -10 210 -6 0 -10 -47 -9 -121 1 -66 -2 -115 -6 -109 -6 9 -9 9 -13 -1 -5
-11 -6 -10 -5 1 2 16 -47 97 -72 117 -8 7 -25 11 -37 8 -18 -4 -24 0 -29 20
-8 34 2 44 21 19 15 -19 15 -19 8 1 -6 18 -4 18 20 -4 22 -20 25 -21 23 -5 -2
10 -8 20 -14 22 -7 2 -10 7 -7 12 7 11 -42 115 -61 130 -12 11 -13 10 -7 -6 3
-10 12 -28 19 -39 18 -30 27 -65 15 -65 -16 0 -40 30 -35 44 3 7 -2 19 -11 26
-8 7 -15 19 -15 26 0 8 -9 19 -20 26 -26 16 -27 41 -1 33 11 -3 21 0 24 8 8
20 -71 17 -83 -3 -6 -8 -10 -11 -10 -6 0 5 -7 3 -15 -4 -26 -21 -16 0 13 29
38 38 61 45 83 25 11 -10 19 -14 19 -10 0 11 -54 55 -67 56 -7 0 -13 5 -13 10
0 6 -8 10 -17 10 -15 0 -13 -4 7 -21 18 -15 20 -19 7 -15 -10 3 -32 6 -48 6
-29 0 -29 0 -13 25 9 14 20 22 25 19 5 -3 9 0 9 5 0 6 7 11 15 11 8 0 15 5 15
11 0 5 4 8 8 5 16 -10 12 52 -5 65 -11 10 -14 10 -9 2 4 -8 2 -13 -8 -13 -8 0
-16 -3 -19 -7 -2 -5 -2 -2 -1 4 2 7 -3 13 -11 13 -8 0 -15 5 -15 10 0 6 5 10
11 10 5 0 7 5 4 10 -4 6 -11 8 -16 5 -5 -4 -12 1 -15 9 -3 9 -11 16 -16 16 -6
0 -7 -7 -4 -16 3 -8 2 -12 -4 -9 -6 3 -10 12 -10 19 0 8 -15 13 -45 14 -32 0
-45 -4 -45 -14 0 -12 12 -18 32 -15 19 2 0 -47 -30 -76 -35 -35 -79 -44 -87
-18 -3 8 -8 23 -12 33 -3 9 -5 20 -5 25 1 4 -5 7 -14 7 -14 0 -15 2 -3 17 12
14 12 15 -1 11 -8 -3 -27 2 -42 10 -23 13 -24 17 -12 30 19 19 11 27 -13 12
-26 -17 -87 0 -91 26 -2 10 -10 24 -17 29 -9 8 -14 58 -17 185 -2 113 -8 183
-16 198 -7 12 -9 22 -4 22 5 0 12 25 15 57 3 31 11 59 17 63 19 12 31 72 37
185 9 170 -9 214 -144 352 -23 24 -49 43 -57 43 -9 0 -16 6 -16 14 0 16 -83
51 -98 42 -6 -3 -12 -1 -14 5 -3 10 -104 20 -193 20 -33 0 -107 -23 -154 -48
-24 -13 -46 -23 -47 -23 -2 0 -4 15 -4 33 0 25 -3 29 -10 17 -8 -11 -9 -7 -4
15 4 17 7 32 6 35 0 23 -4 30 -17 30 -11 0 -15 -13 -15 -54z m803 -1278 c-2
-5 0 -8 5 -8 8 0 9 -61 1 -68 -2 -2 -16 2 -31 9 -30 13 -37 29 -14 29 7 0 19
7 26 15 11 13 8 15 -14 15 -14 0 -26 4 -26 10 0 5 13 8 29 7 16 -1 27 -5 24
-9z m57 -50 c0 -10 3 -9 9 1 14 23 32 2 29 -35 -2 -28 -6 -34 -19 -31 -15 4
-16 2 -6 -14 13 -21 23 -24 32 -9 5 8 11 7 21 -1 7 -6 11 -15 8 -20 -3 -5 2
-9 10 -9 26 0 29 -21 5 -46 -18 -19 -19 -23 -6 -18 12 4 17 1 17 -10 0 -9 -6
-16 -12 -16 -9 0 -8 -3 2 -10 12 -8 12 -10 -3 -16 -9 -3 -24 -1 -31 5 -10 8
-16 9 -21 1 -3 -5 -16 -10 -28 -10 -20 1 -18 4 13 30 27 23 32 32 21 39 -9 6
-10 11 -2 15 17 11 3 26 -24 26 -17 0 -23 5 -22 23 1 12 -2 43 -7 70 -5 31 -4
47 3 47 6 0 11 -6 11 -12z m288 -1 c6 -5 12 -17 12 -29 0 -17 -3 -18 -14 -9
-23 19 -54 -2 -51 -34 2 -14 -1 -25 -6 -25 -5 0 -9 -5 -9 -10 0 -7 16 -9 43
-5 28 4 39 3 32 -3 -5 -6 -21 -12 -34 -14 -24 -3 -24 -4 -7 -20 17 -17 10 -24
-17 -19 -5 1 -6 -8 -2 -19 5 -15 2 -20 -14 -20 -11 0 -23 -5 -26 -11 -10 -15
26 -51 43 -44 9 3 12 0 9 -9 -3 -8 -1 -17 6 -20 7 -3 -1 -3 -17 -1 -57 8 -99
59 -66 80 6 4 8 10 5 15 -3 5 -1 11 3 14 15 9 1 58 -14 52 -8 -3 -14 1 -14 10
0 11 -6 14 -22 9 -23 -6 -23 -6 -3 10 12 9 21 11 23 5 2 -6 10 -7 21 0 10 5
20 7 23 5 3 -3 5 2 5 10 0 11 -7 13 -21 9 -15 -4 -8 8 24 39 43 44 60 51 88
34z m-357 -58 c28 -30 37 -49 22 -49 -15 0 -73 52 -73 66 0 23 20 16 51 -17z
m389 -126 c0 -10 -5 -13 -17 -9 -10 4 -15 4 -11 1 3 -4 -2 -15 -13 -26 -18
-18 -18 -21 -4 -35 8 -9 15 -21 15 -27 -1 -7 -11 0 -23 14 -12 15 -29 29 -37
32 -10 4 -7 6 8 6 12 1 22 6 22 13 0 17 41 58 51 52 5 -3 9 -12 9 -21z m60
-173 c0 -11 -5 -20 -11 -20 -5 0 -7 -4 -4 -10 3 -5 -3 -10 -14 -10 -21 0 -26
15 -15 44 9 24 44 20 44 -4z m-382 -52 c-1 -13 -1 -39 1 -58 l2 -35 14 33 c8
18 19 31 25 27 11 -7 -27 -85 -41 -85 -5 0 -11 16 -15 35 -3 19 -10 32 -15 29
-12 -7 -11 6 2 45 13 36 28 41 27 9z m465 -1 c7 4 6 -1 -2 -10 -7 -9 -11 -28
-9 -42 3 -14 1 -22 -4 -19 -5 4 -18 -3 -29 -15 -24 -25 -35 -26 -43 -5 -7 19
2 37 15 29 5 -4 9 -1 9 5 0 17 44 73 48 61 2 -6 9 -8 15 -4z m-200 -11 c1 -5
-19 -17 -45 -27 -57 -22 -63 -12 -10 19 37 22 52 24 55 8z m69 -30 c6 4 8 -1
3 -15 -3 -11 -2 -21 3 -21 5 0 7 -12 4 -26 -3 -19 -1 -25 7 -20 6 4 11 3 11
-3 0 -5 -4 -12 -10 -16 -5 -3 -6 -13 -3 -22 4 -11 2 -14 -8 -11 -8 3 -13 12
-11 22 2 9 -2 16 -8 16 -8 0 -9 15 -4 46 5 34 4 45 -5 40 -13 -8 -14 -4 -4 21
7 17 8 17 11 0 2 -9 8 -14 14 -11z m-54 -36 c-12 -35 -28 -49 -28 -24 0 15 26
54 36 54 2 0 -2 -14 -8 -30z m-48 -6 c0 -9 -7 -14 -17 -12 -25 5 -28 28 -4 28
12 0 21 -6 21 -16z m315 -4 c9 -14 -45 -34 -58 -21 -5 5 -6 14 -3 20 9 14 53
14 61 1z m-88 -32 c0 -18 1 -40 4 -48 3 -9 -4 -15 -19 -16 -13 -1 -28 -6 -34
-12 -17 -17 18 -27 48 -13 30 13 37 14 30 2 -3 -5 -18 -12 -33 -16 -16 -3 -38
-16 -50 -27 -13 -12 -23 -16 -23 -10 0 7 5 12 10 12 6 0 10 7 10 16 0 8 -4 13
-9 10 -10 -6 -31 37 -31 64 0 26 20 26 27 0 7 -28 22 -25 16 3 -4 17 -2 19 6
7 9 -12 11 -12 17 3 3 9 4 23 1 31 -6 16 1 26 18 26 7 0 12 -14 12 -32z m-225
-40 c-5 -51 -5 -52 14 -34 18 18 18 18 27 -14 9 -37 0 -54 -14 -27 -6 9 -14
15 -20 12 -11 -7 -31 40 -31 74 0 21 -2 22 -12 10 -6 -8 -24 -16 -39 -17 -22
-1 -28 2 -25 16 2 12 16 19 48 23 25 3 48 7 51 7 3 1 4 -21 1 -50z m-132 23
c0 -14 -6 -19 -20 -18 -23 1 -25 8 -8 25 17 17 28 15 28 -7z m240 -65 c0 -20
-45 -71 -53 -60 -7 11 31 74 44 74 5 0 9 -6 9 -14z m-119 -37 c11 -5 17 -14
14 -20 -7 -11 -45 7 -45 21 0 13 7 13 31 -1z m131 -32 c-20 -42 -34 -48 -29
-12 2 20 36 59 44 51 1 -1 -5 -19 -15 -39z m298 -172 c7 -8 9 -15 4 -15 -5 0
-18 -3 -29 -6 -16 -4 -21 0 -22 15 -2 25 28 29 47 6z"/>
<path d="M2068 2989 c-4 -10 -4 -32 -1 -49 3 -21 0 -36 -9 -41 -9 -6 -7 -9 10
-9 24 0 26 8 14 75 -5 27 -10 35 -14 24z"/>
<path d="M2110 2981 c0 -26 16 -35 24 -15 10 25 7 34 -9 34 -8 0 -15 -9 -15
-19z"/>
<path d="M2161 2968 c-1 -20 -4 -43 -7 -52 -5 -12 0 -16 20 -16 29 0 31 3 15
32 -6 11 -7 18 -2 15 4 -3 13 6 20 19 6 14 7 26 2 30 -5 3 -9 -2 -9 -10 0 -26
-20 -28 -29 -4 -9 21 -10 19 -10 -14z"/>
<path d="M720 2958 c0 -9 5 -20 10 -23 6 -4 8 -11 4 -16 -8 -14 36 -60 49 -52
6 3 7 2 4 -3 -3 -6 -2 -16 4 -24 6 -11 9 -8 9 13 0 15 -10 37 -22 49 -13 12
-31 33 -40 47 -13 20 -18 22 -18 9z"/>
<path d="M2320 2935 c-13 -14 -29 -25 -37 -25 -7 0 -13 -7 -13 -15 0 -8 5 -15
10 -15 6 0 10 4 10 8 0 5 12 15 26 22 26 14 52 50 36 50 -5 0 -19 -11 -32 -25z"/>
<path d="M670 2933 c1 -11 30 -44 60 -68 16 -13 11 -4 -14 28 -38 47 -46 54
-46 40z"/>
<path d="M1773 2910 c6 -16 14 -30 18 -30 9 0 24 21 32 43 5 14 0 17 -27 17
-34 0 -34 0 -23 -30z"/>
<path d="M1897 2913 c-6 -11 0 -134 7 -141 3 -3 6 29 6 71 0 72 -3 88 -13 70z"/>
<path d="M1139 2875 c-3 -2 -19 -5 -36 -7 -31 -2 -52 -31 -32 -44 5 -3 9 1 9
9 0 17 41 30 64 21 12 -5 15 -2 10 10 -7 17 -8 18 -15 11z"/>
<path d="M2190 2871 c0 -6 -11 -11 -24 -11 -13 0 -26 -4 -28 -9 -1 -4 -13 -11
-25 -15 -18 -6 -22 -4 -17 8 7 18 -4 20 -25 7 -11 -7 -11 -10 0 -17 17 -10 79
-12 79 -2 0 4 9 8 20 8 29 0 25 -12 -15 -39 -19 -13 -35 -28 -35 -33 0 -6 -9
-21 -20 -35 -21 -27 -28 -103 -10 -103 6 0 10 16 10 35 0 49 37 102 104 150
59 42 68 55 37 52 -11 0 -17 -5 -15 -9 3 -4 -2 -8 -11 -8 -9 0 -14 4 -10 9 3
5 1 12 -5 16 -5 3 -10 1 -10 -4z"/>
<path d="M910 2772 c0 -18 5 -42 10 -53 17 -30 -14 -24 -39 7 -14 18 -21 21
-21 12 0 -9 7 -21 15 -28 8 -7 12 -17 9 -22 -4 -6 -10 -5 -15 3 -11 18 -21 6
-13 -15 6 -15 8 -15 23 -2 9 7 25 16 36 18 26 4 31 47 11 85 l-15 28 -1 -33z"/>
<path d="M203 2777 c21 -17 22 -27 3 -27 -12 0 -12 -5 1 -31 8 -16 13 -33 9
-36 -6 -6 -95 27 -168 64 -27 13 -48 19 -48 14 0 -14 41 -41 61 -41 9 0 22 -7
29 -15 7 -8 23 -15 37 -15 13 0 26 -7 29 -15 4 -10 14 -13 30 -9 26 7 28 0 25
-80 -1 -37 12 -66 30 -66 6 0 2 249 -5 256 -1 1 -12 5 -26 8 -23 6 -23 6 -7
-7z"/>
<path d="M2265 2744 l-50 -46 53 42 c46 37 59 50 49 50 -1 0 -25 -21 -52 -46z"/>
<path d="M280 2750 l25 -21 -25 6 -25 6 25 -20 c14 -11 29 -21 33 -21 4 0 12
-10 17 -22 l9 -23 0 22 c1 13 -8 27 -21 34 -20 11 -21 13 -5 18 15 5 11 10
-20 24 l-38 18 25 -21z"/>
<path d="M448 2698 c13 -26 17 -29 20 -15 2 10 -2 24 -8 32 -22 26 -29 16 -12
-17z"/>
<path d="M265 2642 c9 -77 13 -89 32 -96 22 -9 43 12 24 23 -8 5 -14 28 -14
58 -1 42 -5 51 -25 61 l-23 11 6 -57z"/>
<path d="M787 2694 c-3 -4 5 -16 19 -26 14 -11 28 -18 31 -14 4 3 1 6 -5 6 -7
0 -12 9 -12 20 0 19 -20 27 -33 14z"/>
<path d="M628 2672 c-47 -4 -48 -18 -4 -59 24 -21 41 -30 55 -26 14 3 23 0 27
-11 3 -9 10 -16 16 -16 5 0 6 5 3 10 -3 6 1 13 10 16 23 9 0 24 -37 24 -44 0
-32 17 15 22 46 5 78 -9 55 -23 -10 -7 -9 -9 5 -10 40 -3 60 -16 51 -32 -4 -7
-4 -9 1 -5 4 4 13 1 19 -6 18 -22 56 -30 56 -12 0 9 -3 16 -7 16 -5 0 -44 27
-88 60 -82 62 -98 70 -89 46 3 -7 -1 -16 -9 -19 -15 -6 -32 2 -38 18 -2 6 -21
9 -41 7z m29 -32 c-1 -11 -2 -20 -3 -20 -2 0 -15 4 -29 10 -31 12 -24 30 10
30 18 0 23 -5 22 -20z"/>
<path d="M367 2663 c-10 -10 -8 -113 2 -113 16 0 21 30 9 50 -15 23 4 50 36
50 17 0 18 -2 6 -10 -8 -5 -10 -10 -4 -10 15 0 36 25 27 33 -8 9 -68 9 -76 0z"/>
<path d="M871 2641 c-12 -22 9 -47 31 -38 8 4 7 6 -4 6 -20 1 -25 27 -6 33 9
3 9 6 1 11 -7 4 -16 -1 -22 -12z"/>
<path d="M2150 2613 c-28 -28 -30 -32 -11 -23 34 17 64 47 54 53 -4 2 -24 -11
-43 -30z"/>
<path d="M913 2606 c0 -23 23 -43 35 -31 3 3 0 5 -7 5 -7 0 -11 9 -9 22 2 11
-2 23 -8 25 -7 2 -11 -7 -11 -21z"/>
<path d="M32 2473 c0 -88 3 -113 13 -113 10 0 12 10 9 33 -3 17 -9 68 -13 112
l-9 80 0 -112z"/>
<path d="M694 2459 c4 -63 12 -119 17 -126 6 -6 12 -38 15 -70 3 -32 7 -73 9
-90 3 -25 0 -33 -12 -33 -13 0 -15 -8 -9 -46 3 -26 6 -73 6 -105 0 -33 3 -59
8 -59 19 0 28 40 22 108 -3 41 -3 75 1 77 3 2 4 31 3 63 -2 56 -1 60 22 65 13
2 24 0 24 -5 0 -5 5 -6 11 -2 6 4 7 9 2 13 -5 3 -8 36 -7 74 1 37 -2 67 -7 67
-5 0 -7 12 -5 28 2 15 1 21 -1 15 -2 -7 -9 -13 -14 -13 -5 0 -9 -15 -7 -33 1
-18 -2 -38 -6 -45 -5 -8 -2 -10 11 -5 14 5 16 3 6 -7 -8 -9 -9 -17 -1 -30 14
-23 4 -50 -20 -50 -16 0 -18 10 -20 77 -1 42 -8 83 -15 92 -7 8 -7 12 -1 8 7
-4 10 6 8 31 -2 20 -3 44 -4 52 0 13 -1 13 -10 0 -9 -13 -10 -13 -10 1 0 8 4
19 10 25 6 6 2 14 -12 23 l-21 13 7 -113z"/>
<path d="M983 2535 c-5 -8 -23 -15 -41 -17 -17 -1 -32 -6 -32 -11 0 -5 7 -6
16 -3 9 3 26 6 39 6 14 0 25 7 28 20 6 24 1 26 -10 5z"/>
<path d="M380 2502 c0 -18 -5 -43 -11 -54 -9 -16 -8 -19 2 -16 17 6 29 72 18
90 -6 8 -9 1 -9 -20z"/>
<path d="M322 2490 c-1 -15 4 -30 11 -33 10 -4 12 3 9 24 -6 39 -17 44 -20 9z"/>
<path d="M213 2491 c-11 -18 -1 -55 17 -66 7 -4 5 6 -4 23 -19 38 -4 53 19 18
9 -13 15 -28 13 -32 -1 -5 2 -19 6 -32 5 -14 3 -28 -3 -36 -9 -10 -8 -15 4
-20 21 -8 22 96 0 114 -8 7 -15 20 -15 30 0 21 -24 22 -37 1z"/>
<path d="M833 2467 c3 -9 2 -19 -2 -22 -5 -3 -7 -14 -4 -25 3 -11 10 -17 17
-13 7 4 7 2 -1 -8 -7 -9 -11 -40 -10 -74 2 -50 5 -60 21 -63 16 -3 18 0 12 19
-4 13 -7 37 -7 53 1 15 -4 35 -11 44 -11 13 -11 14 1 7 11 -6 13 -2 7 21 -4
16 -7 37 -7 46 0 10 -5 21 -11 24 -7 5 -9 1 -5 -9z"/>
<path d="M880 2452 c0 -16 3 -32 7 -35 10 -10 13 -101 3 -107 -4 -3 -3 -16 2
-29 17 -46 25 -6 20 97 -3 78 -8 102 -18 102 -9 0 -14 -11 -14 -28z"/>
<path d="M1165 2407 c-12 -10 -14 -16 -7 -21 7 -4 12 -2 12 3 0 6 12 11 28 11
21 0 24 2 12 10 -20 13 -23 12 -45 -3z"/>
<path d="M1082 2379 c2 -19 7 -34 13 -34 14 0 12 58 -3 63 -10 3 -13 -5 -10
-29z"/>
<path d="M1230 2388 c0 -4 6 -9 13 -9 38 -4 83 -24 91 -41 3 -7 3 -2 0 12 -4
13 -12 29 -19 36 -13 13 -85 15 -85 2z"/>
<path d="M1524 2379 c-3 -5 4 -9 16 -9 14 0 19 -4 14 -12 -4 -7 2 -5 13 5 23
20 37 22 27 5 -5 -10 -4 -10 6 -1 7 6 20 9 29 6 14 -4 14 -3 1 5 -19 12 -99
12 -106 1z"/>
<path d="M199 2363 c-6 -48 10 -124 28 -130 13 -5 12 29 -1 39 -6 4 -5 17 2
32 7 16 8 26 2 26 -6 0 -10 6 -10 14 0 16 -19 33 -21 19z"/>
<path d="M80 2335 c0 -18 5 -25 20 -25 11 0 20 6 20 13 0 7 -9 18 -20 25 -18
11 -20 10 -20 -13z"/>
<path d="M136 2344 c-8 -22 -3 -26 24 -22 22 3 22 3 2 21 -18 17 -20 17 -26 1z"/>
<path d="M260 2320 c-12 -8 -12 -10 -1 -10 10 0 12 -10 8 -39 -3 -29 -1 -41 9
-45 11 -4 14 5 14 37 0 51 -10 69 -30 57z"/>
<path d="M1158 2314 c-5 -5 -14 -7 -48 -13 -6 -2 61 -61 68 -61 3 0 -3 9 -13
20 -19 21 -14 50 9 50 7 0 16 -9 19 -21 4 -16 12 -20 33 -17 26 3 48 28 24 28
-6 0 -8 -4 -5 -10 9 -15 -21 -12 -34 3 -6 8 -8 17 -4 20 3 4 -5 7 -19 7 -13 0
-27 -3 -30 -6z"/>
<path d="M1316 2298 c5 -7 2 -9 -9 -5 -11 4 -14 2 -11 -8 3 -8 -4 -16 -18 -21
-23 -7 -22 -7 6 -15 16 -5 33 -6 38 -3 12 8 10 64 -3 64 -5 0 -7 -5 -3 -12z"/>
<path d="M1645 2279 c4 -6 -1 -17 -11 -24 -11 -8 -14 -15 -7 -15 6 0 19 10 27
22 13 18 18 20 28 9 11 -10 10 -15 -4 -25 -10 -7 -15 -16 -12 -19 3 -3 15 3
27 13 17 16 18 22 7 35 -14 17 -65 21 -55 4z"/>
<path d="M40 2231 c0 -28 5 -53 10 -56 6 -4 10 10 10 34 0 31 4 41 16 41 14 0
14 2 0 15 -26 26 -36 17 -36 -34z"/>
<path d="M114 2263 c4 -4 13 -8 19 -9 7 0 20 -2 29 -2 9 -1 19 -10 21 -19 3
-11 5 -7 6 10 1 25 -2 27 -41 27 -23 0 -38 -3 -34 -7z"/>
<path d="M2145 2239 c-4 -6 -13 -8 -21 -5 -8 3 -14 1 -14 -4 0 -6 4 -10 9 -10
6 0 10 -79 11 -186 1 -269 18 -270 22 -1 2 119 2 217 1 217 -1 0 -5 -5 -8 -11z"/>
<path d="M1239 2225 c-18 -10 -36 -11 -63 -5 -36 8 -37 8 -20 -11 23 -26 58
-24 102 6 39 26 25 34 -19 10z"/>
<path d="M2180 2067 c-3 -94 -5 -207 -5 -250 l0 -79 -35 6 c-19 3 -46 6 -60 6
l-25 0 -3 128 c-2 70 -8 168 -12 217 -5 57 -6 12 -2 -122 l5 -213 -34 -1 c-19
0 -43 -4 -53 -8 -33 -13 7 -22 46 -10 41 11 41 11 33 -1 -4 -6 1 -7 11 -3 12
4 15 3 10 -5 -5 -8 0 -12 13 -12 11 0 23 -4 26 -10 3 -5 11 -10 16 -10 16 0
-1 21 -25 30 -20 8 -19 9 6 9 30 1 83 -53 74 -75 -9 -24 13 -15 30 12 13 19
23 24 41 19 12 -3 23 -1 23 4 0 7 -32 20 -52 21 -4 0 -10 -9 -13 -21 -5 -15
-10 -18 -18 -10 -7 7 -6 15 3 26 7 8 9 15 5 15 -4 0 -2 6 4 13 7 9 10 71 8
185 -1 95 0 172 3 172 28 -1 32 -22 31 -174 -2 -151 -1 -156 19 -156 19 0 20
5 20 164 0 99 4 167 10 171 6 3 10 11 10 18 0 6 -8 2 -17 -10 -14 -17 -21 -19
-40 -10 -27 12 -32 31 -21 75 7 24 5 36 -6 47 -8 8 -16 15 -18 15 -2 0 -5 -78
-8 -173z"/>
<path d="M1916 2218 c-10 -30 -13 -98 -6 -98 13 0 20 30 18 73 -1 38 -6 47
-12 25z"/>
<path d="M265 2191 c-3 -10 -2 -28 3 -41 10 -28 3 -82 -11 -77 -14 4 -29 47
-16 47 6 0 4 7 -5 15 -8 8 -16 15 -19 15 -5 0 1 -91 6 -97 3 -2 26 0 52 4 40
7 49 12 50 30 1 14 -5 23 -17 26 -14 4 -17 11 -12 30 11 47 -17 92 -31 48z"/>
<path d="M2070 2193 c-14 -7 -19 -13 -12 -13 9 0 12 -27 13 -97 1 -54 4 -143
8 -198 6 -94 6 -87 14 109 4 115 6 210 5 211 -2 1 -14 -4 -28 -12z"/>
<path d="M0 2177 c0 -7 5 -18 11 -24 8 -8 8 -13 0 -17 -16 -10 -13 -23 5 -23
15 0 15 5 4 75 -1 9 -20 -1 -20 -11z"/>
<path d="M172 2174 c-7 -8 -8 -14 -2 -14 5 0 10 -4 10 -9 0 -12 -70 -19 -102
-10 -21 6 -28 4 -28 -7 0 -11 17 -14 75 -14 78 0 80 1 67 46 -6 19 -9 20 -20
8z"/>
<path d="M998 2133 c3 -32 10 -61 16 -65 7 -5 4 -8 -6 -8 -10 0 -18 5 -18 12
0 6 -2 9 -5 7 -2 -3 2 -23 9 -44 8 -22 13 -56 12 -75 -1 -33 -3 -35 -38 -38
-21 -2 -38 -8 -38 -14 0 -7 15 -9 40 -5 22 3 40 2 41 -1 0 -4 2 -23 4 -42 2
-20 1 -41 -3 -47 -4 -7 -47 -13 -103 -16 -53 -2 -101 -7 -106 -10 -6 -4 -13 0
-17 8 -3 8 -17 15 -31 15 -22 0 -25 -4 -25 -35 0 -37 10 -44 29 -21 9 10 34
13 99 11 56 -1 101 3 127 12 79 29 80 29 78 -14 -1 -21 -4 -47 -6 -58 -2 -11
-2 -14 0 -7 3 6 13 12 24 12 19 0 19 -1 5 -16 -9 -8 -18 -25 -22 -38 -6 -26
17 -74 33 -69 7 3 13 -9 15 -29 l3 -33 34 60 c43 73 56 84 102 85 20 0 81 9
134 20 53 11 117 20 142 20 41 0 48 -4 93 -52 27 -29 59 -76 71 -105 12 -29
27 -50 32 -46 5 3 6 -3 3 -15 -4 -11 -3 -23 3 -26 11 -7 25 22 22 47 -1 9 6
21 17 25 14 5 17 12 11 27 -6 17 -8 17 -8 3 -1 -10 -5 -18 -11 -18 -13 0 -13
23 1 37 7 7 8 17 2 29 -6 11 -9 36 -7 57 4 55 -8 45 -30 -23 -11 -33 -23 -60
-27 -60 -14 0 -31 41 -26 62 3 11 3 18 0 15 -3 -3 -17 5 -31 18 -14 13 -30 21
-35 18 -6 -3 -7 -1 -4 4 10 16 -37 43 -54 32 -18 -11 -72 -12 -84 0 -6 5 -48
17 -95 26 -47 10 -93 21 -102 26 -10 6 -18 6 -18 2 1 -11 40 -60 40 -50 0 5 7
1 16 -7 8 -9 32 -17 52 -17 28 -1 31 -3 12 -6 -14 -3 -30 -9 -37 -15 -11 -9
-98 -4 -135 8 -12 3 -16 1 -13 -8 6 -16 -31 -42 -40 -28 -13 21 -24 9 -15 -16
13 -33 13 -64 -1 -64 -5 0 -8 4 -5 9 7 11 -12 27 -39 34 -19 5 -19 5 3 12 16
5 21 13 17 26 -3 10 1 31 11 46 14 24 14 25 0 9 -9 -11 -16 -18 -17 -15 0 2
-1 23 -2 46 0 23 -5 40 -9 37 -4 -3 -8 2 -8 10 0 8 -9 18 -20 21 -22 7 -27 30
-7 39 6 3 2 3 -11 0 -20 -5 -21 -3 -12 21 12 33 12 35 -1 35 -5 0 -7 -5 -3
-12 4 -7 3 -8 -4 -4 -6 4 -9 13 -6 21 4 8 11 12 17 8 7 -4 8 16 4 63 -4 38 -7
97 -7 132 0 53 -3 62 -18 62 -17 0 -18 -7 -14 -57z m752 -522 c0 -5 -7 -14
-15 -21 -11 -9 -13 -16 -5 -24 15 -15 12 -36 -5 -30 -17 7 -21 54 -5 54 6 0 9
3 9 8 -3 14 1 22 11 22 6 0 10 -4 10 -9z"/>
<path d="M2489 2177 c7 -9 17 -14 22 -11 5 3 9 -2 9 -10 0 -12 10 -14 52 -10
28 3 54 7 59 9 4 3 14 2 23 -1 14 -5 15 -21 12 -103 -4 -105 2 -171 14 -151 6
10 12 -287 11 -565 0 -41 2 -45 9 -23 13 42 11 789 -2 805 -8 10 -7 13 3 13 8
0 0 9 -18 21 -22 14 -51 21 -100 22 -37 2 -77 7 -88 12 -18 8 -18 7 -6 -8z"/>
<path d="M904 2090 c4 -54 2 -90 -4 -90 -5 0 -7 -7 -3 -16 3 -9 0 -20 -8 -24
-22 -14 -3 -23 21 -10 21 11 22 17 16 93 -3 45 -6 94 -6 110 0 15 -5 27 -11
27 -7 0 -8 -30 -5 -90z"/>
<path d="M2380 2169 c-22 -8 -21 -8 8 -4 31 4 39 -5 32 -40 -5 -27 23 -511 31
-519 11 -12 11 105 0 219 -4 44 -5 103 -3 130 l5 50 11 -45 c8 -33 16 -45 29
-44 9 1 17 -1 18 -5 0 -3 2 -126 2 -273 1 -146 5 -270 9 -274 4 -4 9 127 10
289 3 259 1 296 -12 294 -8 -1 -20 -9 -27 -17 -14 -18 -15 -12 -13 145 1 75
-2 97 -10 89 -7 -7 -12 -44 -13 -83 0 -39 -4 -71 -9 -71 -4 0 -7 29 -7 64 1
59 -12 107 -29 105 -4 -1 -18 -5 -32 -10z"/>
<path d="M2858 2163 c-10 -2 -18 -8 -18 -12 0 -3 -11 -8 -25 -9 -14 -1 -25 4
-25 11 0 8 -3 8 -9 -2 -5 -8 -16 -11 -24 -8 -16 6 -41 -15 -31 -26 3 -3 20 -1
37 4 18 5 35 5 40 0 14 -14 64 7 70 30 3 10 4 18 4 18 -1 -1 -10 -3 -19 -6z"/>
<path d="M2890 2045 c0 -132 5 -165 26 -165 11 0 11 6 3 27 -5 15 -9 71 -8
124 1 55 -3 104 -9 115 -9 15 -11 -9 -12 -101z"/>
<path d="M2357 2143 c-2 -5 -5 -55 -6 -113 -2 -58 -4 -116 -6 -130 -2 -14 -4
-40 -4 -58 -1 -19 -5 -31 -11 -27 -6 4 -10 64 -10 148 0 99 -3 137 -10 127
-13 -18 -11 -388 2 -396 4 -3 8 1 8 8 1 7 7 2 14 -11 12 -21 13 -16 19 55 11
135 20 404 14 404 -3 0 -8 -3 -10 -7z"/>
<path d="M1241 2094 c-24 -31 -28 -52 -6 -34 8 6 20 8 27 4 7 -4 10 -4 6 0 -4
5 -3 19 2 32 13 32 -3 31 -29 -2z"/>
<path d="M1513 2107 c4 -10 7 -30 7 -43 0 -13 5 -24 10 -24 17 0 11 57 -7 71
-15 12 -16 12 -10 -4z"/>
<path d="M368 2103 c17 -2 47 -2 65 0 17 2 3 4 -33 4 -36 0 -50 -2 -32 -4z"/>
<path d="M50 2083 c0 -15 -2 -16 -10 -3 -5 8 -12 12 -15 8 -3 -3 2 -13 11 -23
16 -16 18 -16 34 5 17 23 44 24 95 5 16 -5 17 -5 5 4 -9 7 -10 11 -3 11 23 0
24 -20 1 -29 -23 -10 -22 -10 5 -10 22 -1 27 3 27 24 0 24 -2 25 -75 25 -65 0
-75 -2 -75 -17z"/>
<path d="M850 2078 c0 -7 4 -20 10 -28 7 -12 10 -11 16 5 4 11 9 23 11 28 2 4
-5 7 -16 7 -12 0 -21 -6 -21 -12z"/>
<path d="M482 2030 c4 -27 3 -29 -12 -15 -25 22 -32 6 -12 -27 16 -28 20 -30
67 -24 28 3 59 7 70 7 11 1 2 5 -20 8 -22 4 -46 3 -52 -2 -17 -12 -27 14 -21
53 3 21 0 30 -10 30 -10 0 -13 -9 -10 -30z"/>
<path d="M1300 2049 c0 -5 -4 -7 -10 -4 -6 3 -7 -1 -4 -9 7 -18 34 -22 34 -6
0 6 5 10 11 10 8 0 8 -4 0 -14 -9 -10 -9 -16 -1 -21 8 -5 5 -12 -7 -21 -15
-11 -15 -13 -2 -8 10 3 20 1 24 -5 9 -16 22 -13 29 5 4 10 -1 25 -10 35 -10
11 -14 19 -9 19 4 0 2 7 -5 15 -14 17 -50 20 -50 4z"/>
<path d="M90 2039 l-35 -6 26 -10 c24 -10 39 -31 39 -53 0 -22 -34 -40 -76
-40 -24 0 -44 -4 -44 -10 0 -6 32 -10 75 -10 55 0 73 3 70 13 -3 6 -8 37 -13
67 l-7 55 -35 -6z"/>
<path d="M415 2045 c-5 -2 -22 -6 -37 -9 -44 -10 -32 -24 12 -16 23 4 43 10
46 13 7 7 -8 15 -21 12z"/>
<path d="M1424 2038 c-5 -7 -1 -9 13 -6 11 3 27 1 36 -4 13 -7 15 -5 11 7 -7
18 -50 20 -60 3z"/>
<path d="M212 1978 l1 -57 81 6 c45 3 82 7 84 8 8 7 -42 75 -55 75 -13 0 -13
-3 1 -24 17 -27 7 -42 -20 -32 -8 3 -13 2 -10 -3 3 -5 -10 -11 -29 -13 -33 -4
-35 -2 -36 27 0 16 -4 39 -9 50 -6 14 -9 4 -8 -37z"/>
<path d="M272 1994 c2 -11 11 -20 22 -22 13 -3 17 1 14 14 -2 11 -11 20 -22
22 -13 3 -17 -1 -14 -14z"/>
<path d="M1397 1991 c-6 -25 0 -31 30 -31 24 0 31 14 12 26 -8 4 -7 9 2 15 10
6 6 9 -12 9 -18 0 -28 -6 -32 -19z"/>
<path d="M1470 1979 c0 -5 7 -9 15 -9 8 0 15 -8 15 -17 0 -15 2 -16 10 -3 8
12 10 12 10 1 0 -8 3 -11 6 -8 4 4 2 13 -5 21 -14 17 -51 28 -51 15z"/>
<path d="M390 1960 c0 -5 7 -10 16 -10 8 0 12 -4 9 -10 -3 -5 -4 -10 -1 -10 3
0 10 9 16 20 9 18 8 20 -15 20 -14 0 -25 -4 -25 -10z"/>
<path d="M493 1928 c18 -42 33 -68 40 -68 4 0 1 13 -8 30 -14 27 -14 30 3 39
14 9 13 10 -12 11 -19 0 -26 -4 -23 -12z"/>
<path d="M2591 1613 c1 -207 4 -312 10 -285 4 23 11 47 15 54 5 7 3 8 -6 3
-11 -7 -12 8 -7 76 4 46 7 164 7 262 0 168 1 177 19 177 11 0 22 -6 24 -12 3
-7 6 -8 6 -2 1 17 -22 41 -46 49 l-23 6 1 -328z"/>
<path d="M750 1921 c-22 -6 -25 -12 -22 -47 5 -48 10 -55 24 -29 11 19 11 19
19 0 4 -13 7 -1 7 33 0 28 -1 52 -1 51 -1 -1 -13 -4 -27 -8z"/>
<path d="M1253 1919 c-5 -5 -19 -11 -30 -12 -14 -1 -19 -6 -15 -16 3 -9 1 -12
-6 -7 -6 3 -13 2 -16 -3 -4 -5 -1 -13 5 -17 6 -4 16 1 21 10 12 21 28 20 96
-7 37 -15 74 -23 107 -21 69 2 75 3 75 12 0 4 -32 6 -71 5 -53 -2 -80 2 -103
15 -35 19 -47 32 -40 44 7 12 -10 10 -23 -3z"/>
<path d="M1295 1919 c-4 -5 2 -9 12 -10 10 0 52 -2 93 -4 57 -2 69 -1 50 7
-34 13 -148 19 -155 7z"/>
<path d="M447 1893 c-22 -6 -12 -23 14 -23 10 0 19 7 19 15 0 15 -2 16 -33 8z"/>
<path d="M1500 1872 c0 -12 59 -22 66 -10 3 4 -1 8 -8 8 -7 0 -23 3 -35 6 -13
4 -23 2 -23 -4z"/>
<path d="M4 1763 c0 -60 6 -111 11 -115 6 -5 5 -11 -3 -16 -7 -5 -11 -15 -8
-23 13 -42 16 -70 6 -64 -6 3 -10 -3 -10 -15 0 -17 4 -20 20 -15 15 5 20 2 20
-14 0 -11 -9 -22 -20 -26 -13 -4 -20 -15 -20 -32 0 -24 1 -25 22 -10 22 14 23
21 21 123 -5 209 -14 314 -28 314 -10 0 -13 -25 -11 -107z"/>
<path d="M270 1775 c0 -52 4 -95 9 -95 4 0 8 12 9 28 1 115 2 121 18 115 12
-4 10 2 -7 20 -12 15 -24 27 -26 27 -2 0 -3 -43 -3 -95z"/>
<path d="M420 1828 c5 -24 10 -85 12 -135 2 -56 7 -92 13 -89 16 5 4 211 -15
246 -16 30 -18 24 -10 -22z"/>
<path d="M2775 1860 c-2 -4 1 -188 4 -212 1 -4 14 -5 30 -2 24 5 35 1 55 -21
23 -25 26 -37 27 -104 0 -42 7 -94 15 -116 l13 -40 -5 40 c-2 22 -7 54 -10 70
-4 22 -3 26 5 15 16 -23 3 87 -14 121 -17 32 -52 59 -76 59 -10 0 -19 11 -23
31 -15 77 2 141 38 138 36 -2 46 1 46 14 0 8 -17 12 -51 12 -28 0 -52 -2 -54
-5z"/>
<path d="M2389 1798 c0 -29 -3 -72 -5 -95 -3 -24 0 -51 5 -60 8 -13 10 13 11
95 0 61 -2 112 -5 112 -3 0 -5 -24 -6 -52z"/>
<path d="M305 1773 c4 -21 6 -50 6 -65 -1 -16 3 -28 7 -28 5 0 8 14 7 30 -1
17 -2 46 -3 65 -1 19 -7 35 -13 35 -8 0 -9 -12 -4 -37z"/>
<path d="M1783 1780 c9 -25 27 -42 27 -26 0 15 -21 56 -29 56 -5 0 -4 -13 2
-30z"/>
<path d="M1018 1745 c-6 -14 -16 -25 -23 -25 -6 0 -17 -11 -25 -24 -8 -16 -18
-22 -29 -19 -11 4 -13 3 -6 -5 14 -15 55 -4 55 15 0 9 6 13 14 10 8 -3 17 2
20 11 3 9 10 27 16 40 6 14 6 22 -1 22 -5 0 -15 -11 -21 -25z"/>
<path d="M885 1750 c-4 -6 -10 -8 -15 -5 -4 3 -6 -4 -3 -15 7 -27 17 -25 31 5
11 24 0 36 -13 15z"/>
<path d="M763 1744 c-7 -3 -9 -12 -6 -20 3 -9 -9 -27 -32 -46 -32 -28 -35 -33
-20 -44 18 -13 48 -8 82 14 13 8 31 11 40 8 14 -6 11 -11 -18 -28 -31 -19 -32
-22 -14 -29 16 -6 13 -8 -15 -9 -33 -1 -34 -1 -16 -15 31 -23 43 -18 53 22 8
35 9 36 26 18 15 -14 16 -20 5 -26 -7 -5 -9 -9 -4 -9 5 0 4 -6 -2 -13 -13 -15
11 -52 27 -42 17 10 13 25 -4 19 -8 -4 -15 -2 -15 4 0 5 7 12 15 16 8 3 15 1
15 -5 0 -6 5 -9 11 -7 6 2 10 8 10 13 0 6 8 19 17 29 16 18 16 19 -10 12 -34
-8 -35 -3 -6 24 25 23 19 35 -12 25 -13 -4 -19 -12 -16 -21 3 -8 1 -14 -3 -14
-16 0 -19 26 -5 45 21 29 17 37 -11 19 -21 -13 -27 -14 -38 -2 -8 7 -12 19 -9
27 3 9 -2 11 -16 7 -17 -6 -19 -3 -15 14 6 21 5 21 -14 14z m20 -61 c12 -11
-15 -33 -41 -33 -25 0 -25 0 -6 19 20 21 36 26 47 14z"/>
<path d="M685 1727 c-22 -5 -48 -13 -57 -18 -10 -5 -27 -9 -37 -9 -33 0 -34
-20 -2 -26 33 -7 43 -24 14 -24 -14 0 -13 -3 5 -16 12 -8 22 -21 22 -29 0 -22
15 -25 39 -9 12 9 18 20 14 27 -17 28 -11 46 22 66 56 33 46 53 -20 38z"/>
<path d="M911 1721 c-14 -11 -20 -21 -13 -25 11 -7 42 19 42 35 0 12 -1 12
-29 -10z"/>
<path d="M527 1662 c-22 -24 -21 -35 2 -27 12 4 21 0 25 -12 6 -14 9 -15 16
-3 6 10 3 18 -11 28 -11 7 -17 18 -14 23 10 15 -1 10 -18 -9z"/>
<path d="M936 1632 c-8 -13 10 -34 25 -30 8 2 17 -1 19 -7 3 -5 -6 -11 -20
-13 -14 -2 -33 -14 -42 -27 -18 -23 -17 -24 12 -30 17 -4 30 -10 30 -15 0 -5
19 2 43 15 49 29 59 31 51 10 -4 -8 -12 -15 -20 -15 -8 0 -14 -4 -14 -10 0 -5
-6 -10 -13 -10 -18 0 -48 -33 -51 -57 -2 -10 -10 -19 -18 -21 -12 -2 -18 8
-23 35 -7 45 -25 80 -25 51 0 -10 -6 -18 -14 -18 -28 0 -46 12 -46 30 0 11 -5
22 -12 26 -8 5 -9 2 -5 -10 4 -9 9 -47 12 -84 3 -37 11 -71 18 -77 7 -5 13
-18 14 -28 1 -15 -4 -17 -22 -13 -20 5 -22 3 -17 -22 2 -15 9 -33 15 -39 12
-16 -5 -17 -20 -2 -8 8 -15 6 -25 -10 -19 -31 -28 -26 -21 12 3 23 0 37 -11
46 -14 11 -16 11 -16 -3 0 -10 -6 -24 -14 -32 -17 -16 -46 -19 -46 -3 0 5 4 8
9 5 5 -3 14 0 20 8 8 10 8 16 -3 25 -22 18 -48 -27 -41 -68 6 -33 0 -36 -42
-25 -31 8 -29 24 2 24 14 0 25 4 25 9 0 11 -39 3 -57 -12 -15 -11 -14 -13 -17
35 -2 29 1 39 16 44 16 5 17 8 6 22 -8 10 -9 13 -1 9 6 -4 14 -3 18 3 8 13 25
13 25 0 0 -5 -8 -10 -17 -10 -13 0 -15 -2 -5 -8 9 -6 6 -12 -13 -20 -17 -8
-23 -16 -18 -29 4 -11 8 -13 11 -5 3 10 7 10 18 1 19 -15 52 -3 36 13 -22 22
-13 38 22 38 19 0 42 7 50 16 15 14 15 18 -3 42 -12 18 -17 38 -14 60 4 24 2
32 -11 32 -8 0 -20 -9 -26 -19 -8 -16 -5 -25 15 -47 32 -34 32 -52 0 -60 -33
-8 -40 -1 -26 25 9 16 9 19 -2 15 -9 -3 -17 3 -20 15 -3 12 -12 21 -20 21 -9
0 -19 9 -22 20 -3 11 -11 20 -17 20 -6 0 2 -16 16 -35 25 -32 24 -49 -1 -24
-7 7 -12 0 -17 -25 -4 -20 -11 -36 -16 -36 -5 0 -7 -7 -4 -15 7 -17 -11 -21
-21 -5 -8 12 -25 13 -25 1 0 -5 11 -11 23 -15 27 -6 32 -36 7 -36 -25 0 -80
21 -80 30 0 5 10 16 22 24 19 14 20 16 5 16 -10 0 -15 5 -12 10 3 6 21 10 40
10 35 0 56 17 36 30 -7 4 -11 11 -10 16 4 26 -2 64 -11 59 -5 -3 -7 -13 -4
-23 5 -14 3 -14 -10 2 -9 11 -14 29 -12 40 2 12 1 15 -1 8 -6 -18 -23 -4 -23
19 0 12 4 17 11 13 7 -4 10 -1 7 6 -7 23 -28 23 -28 1 0 -33 -17 -25 -24 12
-7 31 -7 31 -22 12 -9 -11 -21 -19 -27 -17 -7 2 -8 0 -4 -5 5 -4 13 -9 18 -9
5 -1 11 -2 14 -3 3 0 0 -11 -6 -23 -12 -22 -12 -22 -20 -3 -6 17 -8 16 -8 -7
-1 -24 -9 -32 -32 -30 -12 1 -9 -79 5 -105 13 -27 13 -29 -10 -40 -16 -7 -22
-8 -17 -1 3 7 1 8 -6 4 -6 -4 -11 -13 -10 -19 1 -7 1 -23 0 -36 -1 -18 -4 -21
-14 -13 -10 8 -16 6 -26 -10 -11 -18 -11 -20 3 -15 24 9 27 -6 7 -39 -10 -16
-21 -46 -25 -67 -4 -20 -11 -37 -16 -37 -6 0 -10 -15 -10 -33 0 -18 -5 -38
-11 -44 -6 -6 -9 -17 -7 -25 3 -8 11 -2 21 17 10 19 16 24 17 13 0 -29 -12
-48 -31 -48 -21 0 -23 -8 -10 -29 13 -20 -7 -58 -33 -65 -18 -4 -25 -19 -40
-83 -9 -43 -24 -108 -32 -144 -8 -36 -14 -69 -12 -75 1 -5 -3 -19 -10 -31 -14
-26 -7 -28 34 -13 21 8 29 8 36 -2 6 -10 8 -8 8 5 0 9 7 17 16 17 14 0 15 -2
3 -17 -13 -16 -12 -17 3 -5 9 8 22 11 28 7 5 -3 10 -1 10 4 0 6 -6 11 -14 11
-8 0 -16 7 -20 15 -3 8 -15 15 -26 15 -11 0 -20 5 -20 11 0 6 9 9 20 6 28 -7
26 26 -2 46 l-23 15 33 12 c23 9 32 18 32 34 0 12 6 28 12 34 10 10 10 17 0
32 -6 11 -9 32 -6 50 7 31 -3 39 -24 18 -7 -7 -12 -8 -12 -2 0 6 16 24 35 41
37 33 41 33 25 2 -7 -12 -7 -19 -1 -19 5 0 13 9 16 21 4 11 23 36 43 55 41 38
79 42 99 9 14 -25 7 -38 -15 -26 -14 7 -55 8 -72 1 -3 -1 -8 -2 -12 -1 -5 0
-8 -13 -8 -29 0 -23 -6 -33 -24 -42 -14 -6 -27 -17 -30 -24 -6 -16 10 -19 19
-4 9 15 25 2 25 -21 0 -11 -7 -19 -17 -19 -14 0 -14 -2 2 -20 18 -20 18 -21
-3 -27 -13 -3 -22 -13 -22 -24 0 -10 -4 -21 -10 -24 -5 -3 -15 -16 -22 -28
-10 -20 -10 -21 5 -8 19 15 23 1 5 -17 -7 -7 -9 -12 -5 -12 3 0 15 9 26 21 14
15 24 18 36 12 13 -8 10 -14 -22 -37 -21 -16 -30 -26 -20 -23 22 8 22 -9 0
-22 -10 -6 -12 -11 -5 -11 17 0 15 -32 -4 -56 -15 -19 -16 -19 -10 1 5 15 0
13 -18 -9 l-24 -29 -7 24 c-7 21 -10 18 -32 -30 -13 -30 -26 -51 -29 -48 -8 8
6 47 17 47 5 0 9 9 9 20 0 13 -7 20 -20 20 -11 0 -20 -4 -20 -9 0 -5 -6 -16
-13 -23 -8 -7 -17 -31 -21 -53 -6 -32 -5 -38 5 -27 7 6 26 12 41 12 16 0 39
10 51 21 20 20 21 21 2 15 -14 -5 -17 -4 -9 4 13 13 46 2 37 -14 -3 -6 4 -1
16 11 19 20 67 31 105 24 6 -1 20 3 32 10 19 9 21 15 11 29 -15 25 9 53 40 47
13 -2 23 0 23 4 0 9 -30 13 -57 10 -7 -1 -13 3 -13 9 0 5 6 10 13 11 43 2 72
10 85 22 12 13 9 16 -29 25 -24 5 -51 11 -59 13 -17 5 -21 -20 -6 -40 8 -11 8
-13 -1 -7 -7 4 -13 3 -13 -2 0 -12 -49 -34 -61 -26 -11 6 8 27 33 37 11 4 15
12 12 22 -4 8 1 17 10 21 20 8 11 24 -14 24 -10 0 -22 5 -26 12 -5 7 -3 8 6 3
10 -6 12 -3 7 11 -7 18 -7 18 8 0 8 -11 15 -15 15 -10 0 6 7 11 15 11 10 0 12
-4 5 -12 -13 -16 8 -25 56 -25 19 0 46 -7 60 -17 23 -15 26 -15 42 0 9 10 11
17 5 17 -6 0 -9 9 -6 20 6 21 23 28 23 9 0 -6 26 25 58 68 105 143 106 143 92
156 -10 9 -11 9 -6 0 4 -7 3 -13 -3 -13 -14 0 -41 29 -41 46 0 8 -9 23 -20 34
-11 11 -20 32 -21 48 0 16 -3 21 -6 12 -15 -39 -55 -32 -69 13 -11 38 -30 34
-26 -5 1 -18 -3 -28 -11 -28 -19 0 -49 35 -40 45 5 4 -2 3 -14 -4 -28 -14 -34
-14 -31 1 2 6 -5 14 -14 16 -11 2 -18 -2 -18 -11 0 -8 -7 -18 -16 -21 -12 -5
-15 -2 -9 11 4 10 10 26 12 36 4 14 8 15 19 6 10 -8 18 -9 27 0 8 6 17 8 20 4
4 -3 7 1 7 11 0 9 11 27 25 40 l25 24 -35 6 c-38 7 -43 17 -20 36 13 10 20 8
41 -13 21 -21 25 -33 20 -54 -6 -26 -5 -26 8 -10 13 17 15 16 37 -14 13 -18
29 -47 36 -63 7 -19 12 -24 12 -13 1 10 -6 32 -15 49 -11 22 -14 43 -9 79 7
48 25 78 25 41 0 -15 7 -18 30 -17 24 1 46 -15 37 -29 -1 -1 4 -10 11 -18 10
-13 10 -17 0 -21 -8 -3 -3 -9 12 -15 33 -13 51 3 25 22 -16 11 -17 18 -8 37 9
18 12 19 12 7 1 -9 6 -20 13 -24 7 -5 9 -2 5 8 -4 12 -1 14 15 10 11 -3 24 1
28 8 12 19 44 22 65 6 15 -11 16 -15 4 -36 -8 -13 -19 -30 -26 -37 -13 -14
-27 -18 -19 -5 3 5 -1 9 -8 9 -8 0 -12 -6 -10 -12 3 -7 -2 -18 -12 -25 -14
-13 -16 -11 -14 10 4 51 1 65 -12 52 -10 -10 -10 -15 -1 -20 22 -14 -3 -34
-37 -30 -25 2 -37 11 -50 35 -20 38 -39 31 -44 -18 -2 -19 -1 -24 1 -11 6 32
17 27 32 -13 8 -23 19 -35 31 -35 10 0 26 -3 34 -6 12 -5 15 -2 10 10 -5 13
-2 15 17 7 18 -6 37 -2 77 17 28 15 52 32 52 39 0 7 4 13 9 13 4 0 20 18 34
39 14 21 44 59 67 83 49 52 67 79 48 76 -9 -2 -13 7 -12 27 3 52 4 56 14 50 6
-4 8 -10 5 -15 -3 -4 1 -11 7 -13 10 -4 9 -8 -2 -16 -8 -6 -10 -11 -5 -11 18
0 63 44 70 70 7 23 7 23 -9 7 -10 -9 -15 -21 -11 -26 3 -5 0 -13 -6 -17 -11
-6 -31 17 -29 32 1 4 -4 10 -11 14 -6 5 -9 15 -6 24 6 15 9 15 32 0 26 -17 35
-8 13 14 -21 21 -2 22 21 1 l22 -21 -7 54 c-3 29 -6 61 -6 71 0 9 -3 17 -9 17
-5 0 -9 7 -9 15 0 18 -12 19 -28 3 -16 -16 -15 -39 2 -32 8 3 17 1 20 -4 6
-10 -12 -29 -29 -32 -14 -2 -23 42 -13 63 5 10 5 17 -1 17 -5 0 -11 -5 -13
-11 -3 -9 -9 -9 -25 0 -12 6 -24 7 -27 3z m-432 -168 c9 -23 -3 -37 -20 -23
-10 8 -14 8 -14 0 0 -6 -11 -11 -25 -11 -31 0 -33 -15 -2 -25 19 -7 17 -9 -18
-15 -22 -4 -34 -8 -27 -9 7 0 10 -6 6 -12 -9 -15 -20 5 -27 52 l-5 37 39 -5
c24 -4 39 -2 39 5 0 9 14 16 41 21 4 0 10 -6 13 -15z m379 -3 c30 -16 31 -19
17 -41 -9 -13 -14 -11 -35 13 -24 27 -34 53 -17 45 4 -2 19 -10 35 -17z m26
-94 c8 -10 7 -17 -1 -25 -26 -26 -60 -4 -38 23 15 18 24 19 39 2z m-509 -52
c-10 -12 -10 -15 0 -15 9 0 8 -5 -3 -18 -13 -14 -14 -21 -5 -30 15 -15 6 -24
-16 -16 -9 3 -16 17 -16 30 0 13 -4 24 -10 24 -5 0 -10 5 -10 11 0 6 7 8 16 5
11 -4 22 1 31 14 8 12 17 19 20 16 3 -3 0 -12 -7 -21z m486 -19 c3 -14 -1 -38
-11 -57 -22 -43 -19 -41 -39 -33 -22 8 -20 31 3 39 26 8 36 37 16 47 -21 12
-19 28 5 28 12 0 22 -9 26 -24z m-371 -27 c0 -8 -8 -13 -17 -11 -19 3 -24 -17
-9 -33 5 -6 12 -21 15 -35 6 -22 3 -20 -29 14 -36 41 -43 64 -24 83 14 14 64
1 64 -18z m235 -5 c0 -4 -8 -13 -17 -21 -17 -14 -17 -14 0 -9 15 5 16 2 7 -14
-11 -21 -30 -27 -30 -9 0 5 -4 8 -8 5 -5 -3 -8 5 -7 17 1 14 8 21 19 19 9 -2
16 2 16 8 0 5 5 10 10 10 6 0 10 -3 10 -6z m-416 -102 c31 6 37 -17 6 -25 -14
-4 -20 -14 -20 -35 0 -16 -6 -35 -13 -41 -11 -9 -14 1 -14 55 0 37 3 61 7 54
5 -7 19 -11 34 -8z m93 -128 c5 -14 -25 -27 -40 -17 -7 4 -20 6 -29 5 -20 -4
-24 14 -5 22 20 8 70 2 74 -10z m-137 -31 c0 -24 -16 -48 -23 -36 -8 13 3 53
14 53 5 0 9 -8 9 -17z m196 -20 c23 -23 42 -25 54 -5 8 15 14 13 45 -18 l36
-36 -28 1 c-15 1 -32 -1 -38 -4 -5 -3 -14 -6 -20 -7 -5 0 -16 -2 -22 -2 -7 -1
-13 -7 -13 -13 0 -6 8 -9 18 -7 16 5 42 -19 42 -37 0 -11 -29 -4 -43 10 -21
20 -29 7 -11 -20 13 -20 13 -23 -1 -29 -23 -8 -9 -25 15 -19 24 6 28 -21 7
-42 -11 -11 -17 -9 -31 10 -15 20 -24 23 -50 18 -17 -3 -37 -10 -43 -16 -7 -5
-13 -6 -13 -2 0 4 -7 2 -16 -6 -12 -10 -17 -10 -23 0 -5 7 -11 12 -15 12 -26
-4 -35 1 -33 19 2 25 17 27 18 3 0 -15 2 -15 9 2 12 27 12 43 0 25 -7 -11 -10
-11 -10 -2 0 7 -5 10 -10 7 -6 -4 -5 5 2 19 6 15 13 24 15 22 3 -2 13 4 24 15
11 11 24 17 28 14 5 -2 11 2 15 10 3 8 12 15 20 15 10 0 14 9 11 34 -3 33 2
39 37 45 4 0 14 -7 24 -16z m129 -132 c3 -5 1 -13 -5 -16 -15 -9 -43 3 -35 15
8 13 32 13 40 1z m-37 -47 c2 -1 -1 -5 -6 -8 -11 -6 -52 30 -52 46 0 6 12 1
28 -13 15 -13 28 -25 30 -25z m-390 -53 c-3 -24 -14 -40 -30 -41 -3 0 -4 12
-2 28 3 15 5 32 6 39 1 6 8 9 15 6 8 -3 13 -16 11 -32z m285 -15 c-5 -25 -44
-46 -84 -46 -37 0 -14 33 40 57 40 18 49 15 44 -11z m-146 -242 c-3 -3 -15 4
-27 16 -21 21 -21 22 -3 42 18 20 18 20 27 -17 4 -20 6 -38 3 -41z"/>
<path d="M2195 1612 c-10 -9 -15 -11 -11 -4 8 13 -3 16 -28 6 -9 -3 -16 -13
-16 -21 0 -12 3 -13 13 -5 7 6 23 9 35 5 15 -3 24 0 28 11 9 25 0 28 -21 8z"/>
<path d="M531 1591 c-9 -17 -8 -28 8 -58 16 -31 21 -35 26 -20 4 10 0 27 -9
41 -11 18 -12 26 -3 29 9 3 9 7 0 17 -9 9 -14 8 -22 -9z"/>
<path d="M710 1602 c0 -5 -11 -15 -25 -22 -13 -7 -22 -16 -20 -21 3 -4 1 -19
-5 -33 -5 -14 -7 -26 -5 -26 3 0 10 12 16 27 6 15 13 23 17 18 13 -18 54 -37
62 -28 10 11 -6 53 -21 53 -6 0 -9 9 -6 20 3 11 1 20 -4 20 -5 0 -9 -4 -9 -8z"/>
<path d="M610 1561 c16 -32 30 -34 30 -7 0 19 -5 26 -20 26 -17 0 -19 -3 -10
-19z"/>
<path d="M320 1532 c-38 -23 -60 -27 -150 -32 l-105 -5 3 -40 c3 -38 1 -42
-32 -58 -28 -13 -36 -23 -36 -43 l0 -27 21 27 c12 15 24 25 26 22 9 -9 51 50
50 70 -2 17 4 19 50 18 29 0 53 3 53 8 0 11 28 10 32 -2 2 -5 22 -1 45 10 29
13 43 15 46 7 4 -14 57 40 57 59 0 18 -7 17 -60 -14z"/>
<path d="M1500 1554 c-8 -1 -45 -6 -83 -9 -70 -7 -84 -25 -19 -25 82 0 196
-44 273 -104 15 -12 41 -29 59 -39 18 -10 30 -20 27 -24 -7 -7 18 -33 32 -33
5 0 13 5 16 11 4 6 0 9 -11 7 -12 -2 -20 4 -22 17 -3 11 -13 31 -23 44 -10 13
-16 28 -12 34 3 6 1 7 -6 3 -6 -4 -9 -12 -6 -17 3 -5 -1 -6 -9 -3 -9 3 -13 11
-9 17 3 6 1 7 -6 3 -9 -6 -64 24 -81 44 -3 3 -27 13 -55 22 -40 13 -50 20 -49
37 0 11 0 20 0 20 -1 -1 -8 -3 -16 -5z"/>
<path d="M1410 1431 c0 -9 24 -21 41 -21 5 0 9 7 9 15 0 9 -9 15 -25 15 -14 0
-25 -4 -25 -9z"/>
<path d="M2771 1348 c1 -35 4 -49 6 -33 9 78 14 82 61 57 12 -7 27 -10 33 -6
11 7 -62 44 -87 44 -11 0 -14 -15 -13 -62z"/>
<path d="M1367 1347 c-22 -24 -32 -28 -57 -23 -19 3 -29 2 -25 -4 3 -6 13 -10
21 -10 18 0 11 -36 -22 -103 -28 -58 -28 -57 -8 -57 11 0 14 -6 9 -20 -4 -12
-2 -20 5 -20 15 0 26 33 12 38 -18 6 -14 40 7 70 10 15 22 38 26 52 10 33 25
51 36 44 5 -3 8 0 7 8 -2 7 3 12 10 10 8 -1 11 2 7 8 -4 6 5 8 22 5 15 -3 44
-7 63 -10 87 -10 120 -18 120 -29 0 -6 5 -4 10 4 8 13 10 12 10 -2 0 -16 30
-25 63 -19 5 1 6 -3 2 -8 -8 -13 44 -26 55 -15 5 5 7 19 4 30 -5 17 -13 21
-42 21 -20 -1 -53 6 -72 15 -47 21 -113 36 -181 41 -50 3 -57 1 -82 -26z"/>
<path d="M251 1333 c-1 -49 -16 -63 -37 -37 -12 15 -15 15 -11 3 5 -14 -6 -17
-75 -18 -44 -1 -77 2 -75 6 3 5 2 15 -4 23 -6 11 -9 6 -9 -17 l0 -33 96 0 c80
0 100 3 121 19 13 11 31 17 39 14 8 -3 14 0 14 7 0 6 -5 8 -11 4 -8 -4 -9 1
-4 17 l7 24 -19 -25 -18 -25 -6 40 -6 40 -2 -42z"/>
<path d="M2770 1209 l0 -66 39 -15 c42 -17 71 -9 71 19 0 13 -3 13 -15 3 -12
-10 -21 -10 -44 0 -26 10 -30 17 -29 50 0 21 -5 46 -11 56 -8 15 -10 5 -11
-47z"/>
<path d="M15 1241 c-3 -6 -3 -11 2 -11 4 0 1 -5 -7 -10 -10 -7 -11 -10 -2 -10
14 0 14 -68 0 -76 -4 -3 -8 -9 -8 -15 0 -5 9 -4 19 3 17 10 19 20 15 67 -6 61
-9 68 -19 52z"/>
<path d="M1340 1170 c-12 -8 -9 -10 14 -10 20 0 27 -4 23 -14 -4 -10 0 -14 14
-13 26 2 24 33 -3 41 -30 7 -30 7 -48 -4z"/>
<path d="M2901 989 c0 -93 -5 -178 -11 -194 -9 -23 -8 -26 3 -17 8 7 16 10 18
7 12 -12 12 314 0 345 -7 18 -9 -24 -10 -141z"/>
<path d="M1240 1115 c0 -13 -9 -32 -19 -42 -15 -14 -19 -30 -18 -66 2 -46 2
-47 19 -25 9 13 20 20 24 16 9 -10 -44 -78 -59 -75 -7 1 -11 -6 -11 -15 2 -26
-4 -22 -21 15 -12 23 -12 27 -2 14 19 -23 35 -4 31 37 -4 34 -2 33 -38 42 -28
7 -29 6 -22 -28 8 -44 0 -52 -26 -26 -18 18 -19 24 -8 42 12 20 12 20 -6 3
-12 -11 -19 -31 -19 -57 0 -39 -17 -55 -28 -27 -3 7 -6 5 -6 -5 -1 -12 6 -18
19 -18 11 0 20 -4 20 -10 0 -5 -9 -10 -21 -10 -11 0 -27 -7 -35 -15 -24 -23
-45 -83 -39 -108 4 -13 -3 -47 -14 -77 -11 -30 -19 -56 -16 -58 8 -8 25 10 25
26 0 15 2 15 10 2 6 -9 10 -10 10 -3 0 6 3 19 7 29 5 13 3 15 -7 9 -8 -5 -11
-4 -7 2 3 5 16 9 29 8 18 -1 25 -11 35 -45 7 -23 10 -48 6 -54 -4 -6 1 -5 10
3 12 9 17 10 17 2 0 -14 -41 -31 -54 -23 -5 3 -7 -2 -3 -11 3 -9 1 -18 -6 -21
-7 -2 -2 -5 10 -5 12 -1 25 -6 29 -13 5 -8 -2 -9 -25 -5 -20 4 -30 3 -26 -3 3
-6 13 -10 21 -10 8 0 13 -3 12 -7 -8 -30 36 -74 59 -60 5 3 14 -1 21 -9 10
-11 7 -13 -21 -12 -35 1 -81 -18 -73 -31 3 -5 17 -6 32 -3 16 3 29 -1 35 -9
12 -20 11 -31 -3 -23 -8 5 -9 2 -5 -9 4 -11 1 -17 -8 -17 -17 0 -29 -17 -16
-24 5 -3 20 6 34 20 26 25 26 25 37 4 6 -11 14 -19 18 -16 4 2 8 -7 8 -21 2
-22 -1 -24 -23 -18 -14 3 -22 2 -19 -3 3 -6 0 -15 -8 -21 -10 -8 -18 -6 -32
11 -13 14 -14 19 -4 14 8 -4 4 2 -9 14 -14 11 -25 33 -26 47 0 14 -9 31 -20
39 -18 14 -18 14 1 29 18 14 18 14 1 15 -11 0 -21 -9 -24 -20 -6 -22 -18 -26
-29 -8 -4 6 1 17 11 25 17 12 17 13 2 13 -9 0 -17 6 -17 14 0 8 -5 16 -11 18
-6 2 -12 16 -12 31 -2 29 -27 38 -27 10 0 -15 -2 -16 -10 -3 -8 13 -10 13 -10
-1 0 -18 24 -42 33 -33 8 8 19 -34 12 -46 -11 -18 -34 -11 -37 12 -5 36 -22
30 -40 -13 -17 -41 -15 -75 4 -48 5 9 6 5 2 -13 -8 -37 5 -57 23 -33 12 17 13
17 14 -11 1 -23 3 -25 6 -6 2 12 8 22 13 22 12 0 21 43 10 50 -5 3 -5 11 0 20
13 22 22 6 28 -50 3 -31 1 -50 -6 -50 -6 0 -13 -14 -17 -30 -4 -17 -13 -30
-21 -30 -11 0 -13 6 -9 20 3 11 2 20 -4 20 -5 0 -16 3 -24 6 -10 3 -18 -2 -22
-15 -11 -35 -21 -15 -19 37 1 39 -2 49 -12 45 -8 -3 -11 -9 -8 -14 3 -5 0 -26
-5 -46 -9 -32 -8 -40 6 -50 26 -20 44 -82 31 -107 -29 -57 -63 -68 -52 -18 l5
27 -14 -24 c-14 -23 -14 -23 -20 13 -9 54 9 87 42 80 l26 -6 -23 17 c-22 16
-24 16 -43 -6 -10 -12 -19 -25 -20 -28 -7 -46 -6 -101 1 -101 6 0 10 -8 11
-17 0 -11 3 -13 6 -5 5 14 33 17 33 3 0 -6 12 -6 29 -1 25 7 28 5 24 -10 -4
-15 -1 -18 16 -13 12 3 21 10 21 15 0 5 -5 6 -11 2 -8 -4 -9 0 -4 15 5 16 3
20 -9 15 -18 -7 -23 21 -6 31 11 7 51 -12 62 -29 12 -17 9 -28 -4 -21 -7 4 -2
-3 12 -14 31 -25 46 -26 59 -4 15 28 25 8 13 -26 -10 -29 -9 -31 13 -31 27 0
35 22 22 63 -6 17 -16 27 -29 27 -11 0 -18 5 -15 13 5 13 10 13 41 1 13 -5 17
-4 13 3 -4 6 -19 14 -34 18 -16 3 -36 14 -45 22 -15 14 -18 14 -18 2 0 -8 5
-20 10 -25 8 -8 5 -15 -7 -24 -15 -12 -16 -12 -6 0 10 10 9 16 -2 24 -8 6 -16
26 -17 45 -3 31 0 34 25 35 21 1 33 -6 50 -31 12 -18 32 -38 44 -44 12 -7 22
-19 21 -28 -3 -34 2 -61 11 -61 5 0 11 10 14 23 9 35 32 61 47 52 10 -6 7 -12
-11 -26 -13 -10 -18 -19 -11 -19 7 0 10 -5 6 -12 -11 -17 -13 -59 -3 -52 5 3
9 16 9 30 0 28 33 66 52 59 7 -3 24 11 38 30 27 37 40 44 40 19 0 -8 -17 -31
-37 -51 -37 -34 -38 -35 -11 -30 23 3 29 -1 37 -24 14 -40 17 -36 13 13 -2 24
1 55 7 71 11 27 53 53 59 36 2 -5 13 -9 25 -8 l22 0 -21 9 c-12 5 -25 13 -29
19 -4 8 -12 8 -26 1 -10 -6 -20 -8 -20 -5 -5 19 -3 31 6 41 12 14 37 6 28 -9
-4 -6 -1 -7 6 -3 9 6 9 12 -3 25 -20 22 -20 31 0 31 8 0 12 5 9 10 -7 11 22
26 31 17 3 -3 1 -14 -4 -24 -15 -27 2 -52 17 -27 6 12 14 15 18 9 15 -19 52
-35 58 -25 9 14 -18 39 -40 37 -14 -2 -21 8 -28 35 -8 36 -9 36 -28 17 -10
-10 -32 -19 -48 -19 -20 0 -31 -6 -34 -17 -3 -11 -5 -7 -6 10 -1 18 4 27 14
27 12 0 15 12 13 53 -1 43 -2 45 -5 15 -4 -39 -16 -49 -27 -23 -3 8 -1 15 4
15 6 0 10 14 10 31 0 26 3 30 20 26 10 -3 24 1 30 8 8 9 3 14 -20 18 -43 9
-37 25 8 23 20 -1 51 1 67 4 17 4 36 5 43 3 19 -7 14 -31 -9 -38 -20 -7 -59
-39 -59 -50 0 -10 59 -5 66 6 3 6 19 9 35 5 15 -3 31 -1 34 4 3 5 -5 10 -17
12 -31 4 -35 41 -9 74 12 15 21 34 21 43 0 12 -5 10 -19 -9 -15 -19 -22 -22
-33 -12 -11 9 -21 7 -46 -8 -31 -19 -32 -19 -32 -1 0 11 5 21 11 23 19 6 -5
40 -42 62 -32 19 -32 19 -25 0 18 -45 18 -48 -2 -28 -20 21 -29 90 -10 78 15
-10 8 7 -18 42 -15 19 -21 34 -14 34 6 0 14 -9 17 -20 3 -11 9 -17 14 -14 5 3
18 0 29 -6 15 -8 18 -15 11 -28 -6 -12 -4 -24 9 -39 l18 -22 4 24 c3 13 0 26
-6 29 -6 2 -3 5 6 5 20 1 33 -15 19 -24 -10 -6 -11 -45 -1 -45 23 2 42 33 43
73 2 39 4 44 19 36 14 -8 15 -14 7 -35 -8 -22 -7 -25 6 -20 8 3 15 1 15 -4 0
-6 -4 -10 -10 -10 -5 0 -10 -7 -10 -15 0 -22 21 -18 27 5 3 11 9 20 14 20 5 0
9 7 9 15 0 8 9 15 20 15 11 0 20 -4 20 -10 0 -5 -4 -10 -8 -10 -5 0 -9 -7 -9
-15 0 -8 9 -15 19 -15 26 0 18 -38 -12 -53 -13 -7 -26 -19 -28 -27 -4 -11 -1
-10 12 3 22 22 26 21 26 -3 0 -11 -16 -38 -36 -60 -44 -49 -35 -52 16 -6 24
22 53 36 80 41 48 8 59 2 42 -25 -7 -11 -12 -26 -12 -34 0 -13 -20 -26 -42
-26 -6 0 -8 13 -6 30 4 24 1 30 -9 25 -8 -3 -17 -5 -19 -5 -3 0 -3 -4 1 -9 3
-5 -5 -17 -17 -25 -26 -18 -17 -21 14 -5 11 6 18 7 15 1 -4 -5 0 -18 8 -28 19
-25 19 -38 -1 -30 -11 4 -18 -1 -21 -15 -3 -11 -11 -18 -18 -15 -8 3 -15 -5
-18 -20 -3 -16 0 -24 9 -24 8 0 14 -4 14 -10 0 -5 -4 -10 -9 -10 -5 0 -17 -3
-26 -6 -12 -5 -16 -2 -13 11 2 13 -4 18 -24 19 -34 2 -37 -9 -5 -18 18 -5 20
-8 7 -16 -13 -9 -12 -10 4 -8 10 2 25 -7 33 -20 14 -20 14 -22 0 -22 -8 0 -18
6 -20 13 -4 9 -6 8 -6 -2 -1 -8 -9 -20 -18 -27 -16 -12 -14 -12 14 -5 29 8 31
7 27 -12 -2 -11 -7 -23 -11 -26 -5 -3 -10 -15 -11 -26 -3 -17 0 -15 23 9 18
20 25 36 22 52 -2 13 0 24 6 24 6 0 2 9 -8 20 -10 11 -15 23 -11 28 4 4 13 -1
20 -10 7 -10 16 -15 19 -11 4 3 7 2 7 -3 0 -5 17 -8 39 -6 52 5 62 -20 24 -60
-20 -20 -23 -28 -11 -28 20 0 42 -26 29 -34 -6 -4 -8 -13 -5 -21 4 -9 -3 -18
-17 -24 -30 -11 -41 -5 -34 20 4 13 2 19 -9 19 -10 0 -16 -9 -16 -22 0 -32 11
-43 40 -43 16 0 25 -6 25 -15 0 -19 16 -31 29 -22 19 11 101 10 108 -2 6 -8 8
-7 8 2 0 13 71 18 83 5 4 -3 18 -7 32 -9 20 -2 24 2 22 19 -1 15 6 24 27 31
33 12 79 53 88 77 6 15 4 15 -25 1 -18 -8 -35 -20 -38 -25 -4 -5 -15 -7 -25
-5 -18 5 -18 5 1 13 11 5 29 17 39 27 18 16 18 18 3 18 -9 0 -17 7 -17 15 0 9
-9 15 -25 15 -18 0 -25 -5 -25 -20 0 -11 5 -20 11 -20 5 0 8 4 4 9 -3 5 -1 12
5 16 6 4 10 -5 10 -19 0 -14 -3 -27 -7 -27 -33 -5 -57 -2 -60 9 -3 6 3 12 13
12 16 0 16 1 1 18 -24 26 -21 41 7 48 14 3 33 15 43 27 16 18 16 20 1 14 -39
-14 -77 88 -48 133 8 12 10 12 16 -3 3 -9 3 -28 0 -42 -7 -26 0 -31 22 -17 9
6 10 16 3 33 -6 17 -5 35 5 57 15 37 29 43 20 9 -5 -21 -3 -23 28 -19 31 4 35
1 41 -27 3 -17 11 -34 17 -37 22 -14 -4 51 -32 81 -44 48 -64 93 -48 113 7 9
8 14 3 9 -4 -4 -17 0 -27 10 -10 9 -18 11 -18 5 0 -6 4 -13 9 -17 8 -4 9 -32
2 -89 -1 -4 -8 -6 -16 -3 -8 4 -17 1 -21 -5 -4 -7 -3 -8 4 -4 7 4 12 1 12 -8
0 -8 -5 -18 -11 -22 -6 -3 -22 -31 -35 -60 -18 -41 -29 -54 -45 -54 -20 0 -20
2 -7 22 37 56 41 66 34 83 -5 14 -9 15 -21 5 -18 -15 -21 1 -4 31 6 11 8 25 6
32 -3 7 -8 4 -13 -8 -4 -11 -14 -31 -23 -44 -14 -22 -15 -22 -22 -5 -7 18 -8
17 -15 -3 -10 -35 -31 -27 -39 14 -6 31 -3 40 15 55 11 9 26 15 33 13 16 -6
48 40 54 78 5 31 4 31 -14 14 -11 -9 -22 -17 -26 -17 -10 0 5 34 20 43 8 5 10
13 6 20 -5 7 -8 28 -8 47 0 27 -4 35 -17 34 -14 -1 -18 7 -20 42 -1 24 -2 52
-2 61 -1 9 5 18 12 21 8 2 12 -7 12 -30 0 -25 3 -29 10 -18 14 21 12 32 -9 59
-17 23 -19 23 -44 6 -15 -9 -40 -36 -57 -58 -16 -23 -30 -37 -30 -32 0 5 -12
-7 -26 -28 -20 -30 -29 -36 -39 -27 -10 8 -14 7 -18 -2 -3 -7 -6 -8 -6 -2 -1
6 9 22 22 36 13 14 21 30 19 36 -2 7 2 12 9 12 10 0 10 3 1 12 -9 9 -8 16 5
30 9 10 11 18 5 18 -15 0 -32 -32 -34 -64 -1 -15 -7 -26 -12 -26 -5 0 -15 -8
-22 -17 -12 -17 -13 -17 -14 3 0 12 7 27 15 34 8 7 15 17 15 23 0 6 -7 2 -15
-9 -8 -10 -15 -14 -15 -9 0 16 30 56 39 51 13 -8 30 30 20 45 -7 11 -9 11 -9
-3 0 -10 -4 -18 -9 -18 -14 0 -21 28 -8 34 7 2 1 5 -12 5 -19 1 -22 -2 -14
-10 9 -9 8 -18 -3 -35 -9 -12 -16 -48 -17 -78 -2 -51 -4 -56 -24 -56 -25 0
-40 -17 -25 -32 6 -6 15 -4 26 7 12 12 16 13 16 3 0 -10 3 -9 10 2 8 12 10 12
15 -3 5 -12 11 -14 25 -7 14 8 21 4 34 -15 9 -14 21 -25 26 -25 17 0 50 -34
50 -52 0 -10 5 -18 11 -18 5 0 8 4 5 8 -2 4 -1 14 5 22 7 12 9 12 9 -3 0 -10
5 -15 10 -12 6 3 10 17 10 30 0 12 7 26 16 29 23 9 28 1 15 -22 -6 -12 -11
-38 -11 -59 -1 -32 -3 -35 -13 -22 -15 19 -60 20 -52 1 3 -9 -1 -12 -13 -10
-13 3 -17 13 -16 41 1 20 -3 37 -7 37 -5 0 -9 -7 -9 -15 0 -8 -4 -15 -10 -15
-5 0 -10 -7 -10 -15 0 -16 -54 -48 -64 -38 -7 7 13 33 26 33 12 0 33 21 40 40
6 18 -14 40 -36 40 -8 0 -18 5 -21 11 -13 20 -49 27 -69 13 -16 -11 -21 -9
-42 16 -13 15 -24 34 -24 41 1 9 4 8 11 -4 8 -14 13 -15 23 -5 7 7 13 20 14
28 7 90 11 105 29 104 12 0 19 7 19 18 0 10 -4 18 -8 18 -4 0 -8 -4 -8 -10 0
-5 -7 -10 -15 -10 -20 0 -33 -29 -28 -63 3 -24 -1 -30 -31 -42 -20 -8 -47 -15
-61 -15 -27 0 -65 27 -65 47 0 7 -7 13 -16 13 -10 0 -14 7 -12 21 4 28 63 36
73 10 3 -9 6 -18 5 -20 -1 -2 4 -7 11 -12 10 -6 7 -11 -11 -18 -14 -5 -20 -10
-15 -11 6 -1 25 -3 43 -6 17 -2 32 1 32 6 0 6 9 10 20 10 11 0 20 5 20 10 0 6
-6 10 -12 9 -29 -3 -49 2 -43 11 3 6 1 10 -4 10 -16 0 -13 19 4 37 23 23 15
49 -14 45 -21 -3 -23 -1 -16 25 13 54 48 74 45 26 -3 -45 -1 -53 16 -53 8 0
12 4 9 10 -3 5 10 17 29 27 20 9 36 23 36 30 0 7 5 13 10 13 6 0 10 -5 10 -11
0 -5 5 -7 10 -4 6 3 10 1 10 -5 0 -6 5 -8 10 -5 6 3 10 1 10 -4 0 -6 7 -11 15
-11 8 0 15 -5 15 -11 0 -5 5 -7 12 -3 7 4 8 3 4 -5 -4 -6 -11 -9 -16 -6 -5 3
-11 1 -15 -5 -10 -16 41 -12 55 5 15 18 37 20 42 3 3 -8 9 -8 22 -1 16 9 13
11 -20 17 -58 11 -106 40 -174 103 -58 53 -100 76 -100 53 0 -6 6 -10 13 -10
18 0 -45 -49 -64 -50 -8 0 -25 11 -37 25 -12 14 -29 25 -37 25 -9 0 -15 9 -15
25 0 14 -4 25 -10 25 -5 0 -10 -11 -10 -25z m220 -45 c8 -5 10 -10 4 -10 -7 0
-15 -11 -18 -25 -4 -16 -11 -22 -21 -19 -8 4 -15 1 -15 -5 0 -6 -5 -11 -11
-11 -5 0 -8 4 -5 9 4 5 0 11 -6 14 -9 3 -5 12 11 31 26 28 38 31 61 16z m-180
-34 c0 -7 4 -6 9 2 6 10 10 7 13 -11 4 -21 2 -24 -11 -17 -9 5 -24 11 -33 14
-11 3 -15 11 -12 20 6 16 34 10 34 -8z m210 5 c0 -6 -4 -13 -10 -16 -5 -3 -7
-19 -3 -35 6 -32 -3 -37 -30 -17 -15 11 -15 14 4 45 20 31 39 42 39 23z m-112
-29 c2 -7 0 -12 -5 -11 -16 3 -53 -14 -53 -24 0 -6 -3 -7 -7 -4 -8 9 38 58 51
54 5 -2 12 -9 14 -15z m-91 -41 c-6 -33 -55 -101 -74 -101 -20 0 -16 11 23 73
39 63 58 73 51 28z m53 -51 c11 -7 9 -11 -13 -19 -16 -6 -32 -11 -37 -11 -4 0
-10 -7 -14 -15 -7 -18 -26 -20 -26 -2 0 11 57 57 70 57 3 0 12 -4 20 -10z m40
-25 c0 -3 -5 -12 -12 -19 -13 -14 -58 -9 -58 6 0 6 9 8 20 5 11 -3 20 -1 20 4
0 5 7 9 15 9 8 0 15 -2 15 -5z m-220 -24 c0 -11 -3 -27 -6 -36 -6 -14 -8 -14
-25 1 -28 25 -25 54 6 54 18 0 25 -5 25 -19z m-97 -41 c-4 -16 0 -20 20 -20
14 0 28 -4 31 -9 3 -5 15 -7 26 -4 23 6 26 -9 5 -27 -8 -7 -25 -10 -40 -6 -18
5 -27 2 -31 -9 -4 -8 -12 -15 -20 -15 -8 0 -14 -4 -14 -10 0 -15 -19 -12 -36
4 -17 18 -17 27 -2 77 9 33 15 39 39 39 22 0 26 -4 22 -20z m153 -1 c10 -17
-23 -46 -38 -31 -8 8 -8 15 2 27 15 18 26 19 36 4z m47 -62 c-2 -4 1 -6 8 -5
7 2 15 -5 17 -15 3 -16 1 -17 -15 -9 -15 9 -22 5 -38 -18 -10 -15 -25 -26 -32
-23 -7 3 -21 -1 -31 -8 -9 -7 -14 -9 -9 -4 4 5 -5 14 -20 20 -22 9 -31 8 -45
-4 -24 -20 -23 -31 2 -31 11 0 20 7 20 15 0 32 18 13 24 -26 4 -26 11 -39 19
-36 6 2 11 14 9 25 -5 37 34 28 47 -10 12 -34 0 -53 -26 -43 -7 2 -13 -2 -13
-10 0 -8 9 -15 19 -15 19 0 35 -25 26 -40 -3 -4 2 -13 10 -20 13 -11 10 -15
-17 -29 -17 -9 -34 -23 -36 -31 -4 -12 -2 -13 9 -2 20 19 31 14 23 -10 -6 -22
-6 -22 13 -6 11 10 23 18 26 18 13 0 7 -23 -10 -42 -15 -17 -15 -18 2 -18 18
0 18 -1 -1 -14 -12 -9 -23 -11 -29 -5 -5 5 -19 9 -31 9 -12 0 -27 7 -34 15
-15 17 -7 19 21 5 15 -8 19 -7 19 4 0 9 -19 26 -42 38 l-43 23 30 3 c39 5 61
22 43 34 -10 6 -10 10 1 17 12 8 12 12 2 25 -8 9 -20 16 -28 16 -12 0 -13 3
-4 14 9 11 10 20 1 36 -9 17 -17 20 -41 15 -26 -6 -29 -4 -29 20 0 20 -4 26
-15 21 -20 -7 -19 4 3 31 9 12 28 24 41 26 14 2 27 9 29 15 2 7 7 10 12 7 5
-3 11 3 15 13 4 14 12 18 29 15 17 -4 28 1 37 15 12 19 14 19 25 4 7 -9 10
-20 7 -25z m467 -3 c15 -39 12 -46 -12 -33 -31 16 -39 31 -26 46 16 20 27 16
38 -13z m-45 -40 c0 -15 7 -19 33 -18 23 2 32 -2 32 -13 0 -13 3 -13 15 -3 13
11 14 10 9 -3 -3 -9 -13 -16 -22 -16 -9 0 -36 -3 -59 -7 -30 -4 -43 -3 -43 5
0 6 8 11 18 11 10 1 3 7 -15 15 -38 16 -38 18 -18 38 20 20 50 15 50 -9z
m-305 0 c0 -8 5 -14 12 -14 28 0 -10 -19 -42 -22 -31 -3 -35 0 -38 24 -3 24 0
26 32 26 24 0 36 -5 36 -14z m-247 -174 c6 -14 11 -29 11 -35 2 -13 -52 -65
-67 -65 -6 0 -7 3 -4 7 4 3 -1 12 -11 19 -14 11 -15 16 -5 33 8 13 9 22 3 26
-17 10 -12 38 6 31 8 -3 12 -2 9 4 -4 6 4 14 17 19 15 6 24 5 27 -3 2 -6 8
-22 14 -36z m217 2 c0 -17 -26 -40 -52 -46 -31 -7 -36 5 -12 25 13 10 17 10
25 -2 7 -11 9 -9 9 9 0 13 6 22 15 22 8 0 15 -4 15 -8z m424 -26 c-3 -8 -17
-17 -31 -21 -36 -9 -73 -35 -73 -51 0 -8 -4 -14 -9 -14 -13 0 -8 32 9 52 8 10
24 18 35 18 12 0 30 7 41 15 24 18 35 19 28 1z m-74 -128 c0 -5 -5 -8 -11 -8
-6 0 -17 -7 -25 -15 -11 -11 -12 -15 -3 -15 10 0 10 -3 1 -12 -6 -6 -33 -11
-59 -11 -26 0 -42 -2 -35 -5 10 -3 9 -8 -4 -23 -16 -18 -16 -19 4 -19 11 0 24
5 28 12 5 7 3 8 -6 3 -8 -5 -11 -4 -7 2 4 6 18 8 32 6 19 -4 33 3 60 30 19 19
35 31 35 26 0 -5 14 -2 32 7 22 12 33 13 36 5 2 -6 9 -8 15 -4 7 4 6 -1 -2
-11 -22 -26 -22 -65 -1 -78 14 -9 16 -17 9 -34 -5 -14 -4 -26 2 -29 5 -4 7
-10 4 -15 -3 -5 4 -7 16 -5 18 4 19 2 7 -12 -9 -12 -9 -15 0 -9 8 5 11 1 9
-16 -2 -13 -11 -23 -20 -23 -8 0 -25 -11 -36 -24 -22 -25 -27 -36 -13 -27 7 4
25 -21 38 -54 4 -11 -51 -8 -58 3 -6 9 -8 8 -8 -2 0 -9 -8 -11 -25 -7 -14 4
-25 2 -25 -3 0 -15 -40 0 -50 19 -6 12 -5 23 4 35 13 18 11 50 -5 70 -4 6 -2
17 4 26 12 16 18 16 67 4 21 -5 22 -5 8 5 -9 6 -15 17 -12 24 6 17 -12 31 -21
16 -4 -6 -18 -1 -36 12 -21 16 -26 24 -17 30 19 12 35 10 52 -7 10 -10 17 -12
21 -4 9 13 34 -19 35 -44 0 -25 20 -11 20 14 0 11 -7 22 -15 25 -8 4 -12 11
-8 18 3 6 3 8 -2 4 -4 -4 -22 1 -39 12 -33 20 -32 20 -92 -16 -31 -19 -64 -1
-60 33 2 15 4 35 5 44 1 12 8 15 25 12 22 -5 41 10 41 32 0 6 16 15 35 21 34
11 49 6 50 -18z m-780 -28 c0 -14 -32 -4 -42 13 -16 29 3 43 24 18 10 -13 18
-27 18 -31z m238 -7 c25 -20 43 -93 23 -93 -6 0 -11 12 -11 28 0 33 -7 42 -42
65 -16 10 -28 22 -28 28 0 11 21 1 58 -28z m55 -20 c-6 -16 -5 -16 10 -4 15
12 17 11 17 -13 0 -29 -8 -32 -32 -13 -26 20 -30 47 -8 47 14 0 18 -5 13 -17z
m-195 -46 c2 -16 16 -36 32 -49 34 -25 30 -45 -5 -22 -13 8 -30 33 -39 55 -19
48 -20 52 -3 47 6 -3 13 -17 15 -31z m-18 -43 c12 -19 20 -37 17 -40 -6 -6
-57 54 -57 67 0 20 19 7 40 -27z m240 -6 c0 -6 7 -8 15 -4 8 3 15 1 15 -4 0
-6 -4 -10 -10 -10 -5 0 -7 -7 -4 -15 7 -18 -12 -20 -19 -2 -4 9 -8 9 -15 -2
-7 -9 -11 -10 -17 -2 -5 9 -10 9 -21 0 -8 -6 -17 -9 -21 -5 -3 3 -14 -1 -24
-10 -19 -17 -49 -13 -49 6 0 6 5 8 11 5 6 -4 13 2 16 14 3 13 13 21 27 21 12
0 31 6 41 14 20 14 55 10 55 -6z m604 10 c-6 -9 -3 -9 9 0 18 15 37 8 37 -12
0 -8 -15 -16 -37 -18 -38 -5 -59 1 -36 9 7 2 9 11 6 19 -3 9 1 14 12 14 10 0
13 -4 9 -12z m-959 -48 c4 -6 10 -24 15 -40 7 -24 6 -30 -7 -30 -10 0 -13 6
-9 17 4 10 -2 25 -15 40 -18 19 -20 23 -6 23 9 0 19 -5 22 -10z m207 -48 c-15
-5 -61 30 -62 46 0 8 14 2 36 -15 20 -15 32 -29 26 -31z m138 14 c0 -16 -14
-36 -25 -36 -7 0 -15 -6 -18 -12 -3 -10 -9 -9 -22 3 -15 15 -15 17 0 33 14 14
65 23 65 12z m645 -68 c14 -6 25 -15 25 -20 0 -4 8 -8 17 -8 13 0 14 -3 5 -12
-9 -9 -15 -8 -24 5 -8 9 -31 17 -57 19 -51 3 -70 28 -22 28 16 0 42 -5 56 -12z
m-15 -38 c0 -6 4 -9 9 -8 5 2 11 -1 13 -7 1 -5 -11 -11 -29 -13 -27 -3 -31 -1
-26 17 5 21 33 30 33 11z"/>
<path d="M1360 1106 c0 -8 -7 -17 -16 -20 -9 -4 -15 -9 -12 -12 8 -7 58 14 58
25 0 5 -7 11 -15 15 -9 3 -15 0 -15 -8z"/>
<path d="M748 1073 c-19 -5 -25 -23 -8 -23 5 0 6 -8 3 -17 -4 -9 -8 -12 -10
-6 -2 6 -13 9 -23 6 -11 -3 -20 0 -20 6 0 6 5 11 10 11 6 0 10 5 10 11 0 8 -4
8 -14 0 -7 -6 -22 -8 -31 -4 -13 4 -16 3 -11 -5 5 -8 2 -10 -8 -6 -11 4 -16 0
-16 -11 0 -11 5 -15 15 -11 10 4 15 -1 16 -17 1 -17 2 -18 6 -4 2 9 9 17 14
17 5 0 6 -12 3 -26 -5 -19 -4 -25 5 -20 14 9 15 -6 0 -21 -7 -7 -7 -13 0 -17
5 -4 17 6 25 22 8 16 31 50 51 76 35 47 33 52 -17 39z"/>
<path d="M2578 1049 c7 -16 6 -31 0 -43 -14 -25 -7 -27 20 -6 l22 19 -25 27
-26 28 9 -25z"/>
<path d="M610 999 c0 -4 9 -11 21 -14 11 -4 24 -16 29 -28 l9 -22 0 23 c1 12
-3 22 -9 22 -5 0 -10 6 -10 14 0 9 -9 14 -20 13 -11 -1 -20 -4 -20 -8z"/>
<path d="M2636 974 c-10 -26 -7 -43 12 -62 20 -20 46 -72 87 -177 16 -38 35
-76 44 -85 13 -13 14 -13 6 5 -4 11 -20 52 -34 91 -14 39 -32 78 -40 87 -7 9
-14 28 -15 42 0 14 -7 25 -13 25 -7 0 -13 7 -13 16 0 10 5 14 15 10 20 -7 17
21 -5 46 -18 22 -36 23 -44 2z"/>
<path d="M2726 934 c-8 -22 -7 -36 2 -30 13 8 87 -39 84 -53 -1 -7 1 -10 6 -7
9 5 29 -27 43 -69 6 -17 7 -16 8 8 1 36 -42 103 -82 127 -18 10 -37 23 -44 29
-8 7 -13 5 -17 -5z"/>
<path d="M2130 931 c0 -13 26 -32 33 -24 14 13 6 33 -13 33 -11 0 -20 -4 -20
-9z"/>
<path d="M1635 901 c-4 -3 -12 -6 -17 -6 -6 0 -13 -6 -15 -12 -3 -7 2 -13 9
-13 8 0 20 6 27 13 10 9 15 9 18 0 3 -8 11 -8 30 2 14 7 33 11 42 8 9 -4 13
-2 8 3 -10 10 -93 15 -102 5z"/>
<path d="M2103 879 c-13 -5 -23 -11 -23 -13 0 -3 7 -3 16 1 12 4 15 2 12 -8
-3 -8 -13 -14 -24 -14 -28 0 -47 -15 -36 -28 5 -7 3 -26 -3 -46 -7 -20 -15
-29 -19 -23 -4 7 -2 21 4 33 7 11 9 23 6 26 -7 7 -26 -42 -26 -68 0 -10 -4
-19 -9 -19 -11 0 0 -51 23 -104 21 -50 30 -43 11 9 -17 48 -19 105 -4 105 5 0
7 -4 4 -10 -3 -5 -1 -10 4 -10 6 0 11 10 11 23 0 12 4 28 9 35 6 10 10 9 14
-7 3 -12 11 -21 17 -21 10 0 10 3 0 15 -6 8 -9 19 -5 25 4 6 3 9 -2 8 -4 -2
-9 2 -10 7 -2 6 3 10 10 10 18 1 74 34 58 35 -8 0 -23 -8 -34 -17 -16 -14 -19
-15 -15 -3 2 8 21 21 41 29 32 12 40 11 74 -6 21 -10 37 -23 36 -29 -1 -6 5
-11 13 -11 8 0 14 4 14 8 0 16 -68 79 -86 79 -16 0 -17 -2 -4 -10 8 -5 10 -10
5 -10 -6 0 -16 5 -23 12 -9 9 -12 9 -12 -1 0 -10 -4 -10 -12 -3 -8 6 -22 6
-35 1z"/>
<path d="M1986 810 c-15 -33 -31 -59 -34 -58 -4 2 -23 -12 -42 -30 -34 -32
-60 -41 -60 -22 0 6 -4 10 -9 10 -5 0 -7 -9 -4 -20 6 -24 9 -24 48 -2 66 37
105 68 101 79 -3 6 2 14 10 17 10 4 13 13 9 25 -4 13 2 26 16 40 17 16 19 21
8 21 -9 0 -27 -25 -43 -60z"/>
<path d="M2273 845 c-2 -8 2 -24 11 -37 20 -29 22 -62 2 -36 -11 15 -12 11 -8
-31 2 -27 -1 -65 -8 -85 -20 -61 -99 -100 -150 -74 -31 17 -79 87 -73 108 4
13 3 13 -5 1 -8 -11 -6 -23 4 -43 8 -15 11 -28 7 -28 -5 0 0 -5 10 -11 13 -7
15 -14 8 -23 -7 -8 -4 -12 10 -14 42 -4 49 -6 49 -13 0 -4 8 -6 18 -4 9 2 29
4 44 4 15 1 38 13 54 30 15 17 31 28 34 26 6 -3 8 14 13 95 1 15 13 32 30 42
33 21 34 31 5 51 -21 14 -21 16 -4 16 15 1 16 4 7 15 -17 20 -51 27 -58 11z"/>
<path d="M1793 755 c-26 -11 -32 -28 -7 -18 9 3 20 0 24 -7 13 -22 30 -7 17
15 -10 17 -16 19 -34 10z"/>
<path d="M2157 754 c5 -13 66 -11 70 2 2 5 -14 9 -36 9 -24 0 -37 -4 -34 -11z"/>
<path d="M2246 703 c-12 -46 -35 -75 -56 -68 -10 3 -21 1 -25 -4 -4 -7 1 -9
12 -5 16 5 16 4 -1 -10 -11 -9 -15 -16 -10 -16 22 0 83 62 89 91 9 39 0 50 -9
12z"/>
<path d="M2694 702 c-33 -22 -18 -62 22 -62 13 0 26 -5 29 -10 4 -6 11 -8 16
-5 15 10 10 23 -8 21 -11 0 -19 7 -21 21 -4 26 -24 44 -38 35z"/>
<path d="M1810 693 c0 -6 -3 -18 -6 -27 -4 -10 -1 -16 9 -16 8 0 18 -7 21 -16
5 -14 4 -15 -9 -4 -17 14 -21 0 -4 -17 5 -5 11 -26 11 -44 1 -19 3 -28 6 -21
3 10 8 10 22 -3 17 -15 19 -15 25 5 5 15 -2 34 -21 63 -15 23 -34 53 -41 67
-7 14 -13 20 -13 13z"/>
<path d="M2387 646 c-9 -23 3 -51 26 -61 12 -6 26 -20 32 -33 11 -24 26 -25
33 -1 3 11 2 11 -7 -1 -9 -12 -11 -9 -12 15 0 17 -3 25 -5 18 -9 -21 -54 31
-47 55 6 24 -12 31 -20 8z"/>
<path d="M2662 632 c-19 -3 -21 -6 -11 -18 6 -7 15 -12 19 -9 4 3 14 -3 21
-12 12 -14 12 -16 -1 -9 -8 4 -2 -4 14 -17 18 -16 26 -29 21 -37 -5 -9 -4 -11
3 -6 11 7 17 -11 13 -41 -1 -7 2 -13 7 -13 6 0 10 -6 9 -12 -1 -45 2 -48 56
-45 52 2 53 2 49 32 -1 17 -3 36 -4 43 -1 6 -8 12 -16 12 -14 0 -13 -13 2 -51
5 -12 0 -18 -19 -21 -20 -4 -28 -1 -34 15 -13 34 -2 63 22 63 18 -1 22 5 22
28 0 16 -5 31 -12 33 -7 3 -9 -3 -6 -16 4 -15 -2 -24 -21 -32 -14 -7 -28 -10
-31 -7 -9 8 6 38 16 32 5 -3 6 2 3 10 -3 9 -1 16 5 16 5 0 9 13 8 29 -1 17 -6
26 -12 23 -18 -12 -70 -10 -85 2 -8 7 -25 10 -38 8z m126 -41 c2 -1 -3 -8 -12
-16 -21 -21 -46 -19 -46 4 0 18 15 21 58 12z"/>
<path d="M921 574 c-14 -39 -14 -47 1 -42 7 3 15 15 18 29 5 20 12 24 39 22
26 -1 30 2 21 13 -7 7 -24 12 -40 11 -21 -2 -30 -9 -39 -33z"/>
<path d="M210 436 c-6 -8 -21 -17 -33 -19 -22 -3 -22 -4 2 -13 23 -10 23 -11
-22 -39 -25 -16 -51 -40 -58 -52 -7 -13 -16 -23 -21 -23 -4 0 -8 -4 -8 -10 0
-23 28 -7 56 30 16 22 58 59 93 82 35 23 58 44 52 46 -6 2 -18 -2 -27 -8 -12
-11 -13 -10 -8 4 8 20 -9 21 -26 2z"/>
<path d="M1414 376 c-8 -22 14 -40 32 -25 9 7 15 5 23 -8 7 -14 13 -15 21 -6
9 8 6 13 -11 18 -13 5 -25 6 -26 4 -1 -2 -9 5 -17 16 -14 19 -15 19 -22 1z"/>
<path d="M2870 385 c0 -18 33 -95 40 -95 5 0 0 20 -9 45 -17 43 -31 67 -31 50z"/>
<path d="M2743 352 c45 -36 123 -116 130 -134 4 -11 6 -11 6 0 1 8 -8 25 -19
39 -11 14 -18 28 -16 32 3 4 -8 12 -22 19 -15 6 -35 24 -44 40 -11 18 -26 28
-44 30 -27 2 -27 2 9 -26z"/>
<path d="M2017 323 c-14 -13 -7 -34 14 -41 21 -8 66 -92 49 -92 -6 0 -10 -7
-10 -16 0 -14 3 -14 15 -4 15 13 20 5 16 -26 -1 -7 7 -14 18 -17 15 -4 18 -1
12 12 -4 9 -16 35 -26 59 -10 23 -22 42 -27 42 -4 0 -8 9 -8 20 0 22 -27 70
-39 70 -4 0 -11 -3 -14 -7z"/>
<path d="M2008 249 c-22 -13 -25 -51 -3 -43 8 4 15 12 15 20 0 8 5 14 10 14 6
0 10 5 10 10 0 13 -10 12 -32 -1z"/>
<path d="M2037 153 c-4 -3 -2 -12 3 -19 6 -6 10 -16 9 -20 -4 -23 2 -45 11
-39 11 7 10 55 -2 55 -4 0 -5 7 -2 15 6 15 -7 21 -19 8z"/>
<path d="M2942 86 c0 -44 4 -73 8 -65 4 8 4 43 0 79 l-7 65 -1 -79z"/>
<path d="M1335 130 c-4 -6 -14 -9 -23 -8 -10 2 -17 -4 -17 -12 0 -8 -4 -20 -7
-26 -4 -5 -6 -24 -6 -40 1 -28 3 -30 44 -30 23 0 40 4 38 8 -3 4 0 17 6 28 7
14 7 20 0 20 -6 0 -15 -12 -21 -27 -9 -24 -11 -25 -25 -11 -10 10 -14 23 -9
37 5 18 12 21 38 17 28 -4 30 -3 15 8 -20 15 -25 31 -5 20 8 -5 8 -2 -2 9 -16
20 -18 20 -26 7z"/>
<path d="M1478 104 c7 -3 12 -25 12 -55 0 -27 4 -49 8 -49 17 0 21 13 9 31
-10 16 -9 21 1 28 22 14 10 46 -18 48 -14 1 -19 0 -12 -3z"/>
<path d="M2146 85 c3 -14 2 -25 -4 -25 -11 0 -3 -48 10 -56 5 -4 9 2 8 12 -4
32 0 45 10 39 5 -3 5 7 -1 25 -13 36 -32 41 -23 5z"/>
<path d="M2020 85 c0 -8 -5 -15 -11 -15 -20 0 -38 -27 -32 -49 3 -11 10 -18
15 -15 5 3 7 13 4 21 -4 9 -1 13 6 10 7 -2 12 -13 10 -23 -2 -16 -1 -16 7 -4
7 9 7 18 1 24 -13 13 -13 29 0 21 6 -4 10 5 10 19 0 14 -2 26 -5 26 -3 0 -5
-7 -5 -15z"/>
<path d="M690 31 c-14 -28 -13 -31 14 -31 29 0 38 11 25 30 -7 13 -9 12 -9 -2
0 -10 -5 -18 -11 -18 -6 0 -9 9 -6 20 7 25 1 26 -13 1z"/>
<path d="M1927 33 c-14 -13 -6 -33 13 -33 22 0 23 1 14 24 -7 17 -16 20 -27 9z"/>
<path d="M869 16 c9 -11 28 -16 60 -15 45 1 45 1 11 8 -19 4 -46 11 -60 16
-22 7 -23 6 -11 -9z"/>
</g>
</svg>
